<svg width="346" height="90" viewBox="0 0 346 90" fill="none" xmlns="http://www.w3.org/2000/svg">
<path d="M172.818 41.9337C174.315 41.2097 174.622 39.2428 173.284 38.2079C170.787 36.2763 167.788 34.6213 164.943 33.7976C161.031 32.6649 156.872 32.5277 152.886 33.3998C148.9 34.2718 145.226 36.1224 142.234 38.7656C140.053 40.6926 138.292 43.397 137.034 46.1571C136.359 47.6374 137.533 49.2549 139.187 49.289C140.252 49.3109 141.175 48.6382 141.605 47.6834C142.539 45.6123 143.867 43.9675 145.733 42.3188C148.066 40.2574 150.932 38.8141 154.04 38.134C157.149 37.4539 160.392 37.5609 163.444 38.4442C165.883 39.1505 167.994 40.0425 169.855 41.5013C170.707 42.1697 171.859 42.3974 172.818 41.9337Z" fill="#1CA1FB"/>
<path d="M308.411 53.2631V62.6761H312.49V54.7009H318.562V51.3086H310.522C309.17 51.3086 308.411 51.9826 308.411 53.2631Z" fill="#1CA1FB"/>
<path d="M324.397 62.9007C327.006 62.9007 328.571 61.6651 329.188 60.0027V62.6761H333.244V51.3086H329.188V55.3973C329.188 58.6099 327.883 59.5085 325.891 59.5085C324.089 59.5085 323.496 58.7671 323.496 56.7228V51.3086H319.416V57.3293C319.416 60.9013 321.29 62.9007 324.397 62.9007Z" fill="#1CA1FB"/>
<path d="M67.8525 47.3126C67.0526 47.2173 66.8436 46.825 66.867 45.6789L66.867 23.5457C66.867 18.859 70.2451 15.9995 75.2446 15.9995H98.899C100.109 15.9497 100.438 16.2129 100.46 17.0884V22.2035C100.471 23.2127 100.229 23.4147 99.5971 23.4873H80.7188C77.1997 23.578 76.0322 24.2334 76.1194 27.0271V45.6789C76.1656 47.0034 75.8748 47.3207 74.9284 47.3126H67.8525Z" fill="#FA741C"/>
<path d="M107.301 16.0542C105.95 16.0339 105.479 16.3159 105.401 17.6036V21.6519C105.433 23.0654 105.831 23.4975 107.301 23.5011H130.876C135.274 23.5013 135.194 29.5022 130.876 29.508H107.301C105.782 29.6142 105.439 30.0133 105.401 31.1073V45.6812C105.451 46.8909 105.713 47.2691 106.72 47.3305H113.416C114.398 47.3269 114.638 46.9983 114.656 45.981V38.3292C114.656 37.4749 114.972 36.8048 116.265 36.8048H135.572C140.66 36.7489 141.956 35.4063 142.009 31.1073V21.252C142.113 16.7483 140.295 15.9985 135.572 16.0542H107.301Z" fill="#FA741C"/>
<path d="M197.642 8.9624C195.985 8.93746 195.407 9.28343 195.312 10.8631V15.8293C195.35 17.5633 195.839 18.0934 197.642 18.0978H226.563C231.958 18.0981 231.86 25.4597 226.563 25.4668H197.642C195.778 25.5971 195.359 26.0866 195.312 27.4287V45.3071C195.373 46.7912 195.694 47.2552 196.93 47.3304H204.762C205.967 47.3261 206.261 46.923 206.283 45.675V36.2881C206.283 35.2401 206.671 34.4181 208.257 34.4181H232.324C238.565 34.3495 240.155 32.7025 240.22 27.4287V15.3388C240.348 9.81387 238.117 8.89405 232.324 8.9624H197.642Z" fill="#FA741C"/>
<path fill-rule="evenodd" clip-rule="evenodd" d="M147.025 23.8105V39.676C147.025 44.783 149.102 47.3496 153.102 47.3496H183.643C188.335 47.3496 189.72 43.7548 189.72 39.676V25.2621C189.72 19.5093 188.017 15.9295 183.643 15.9295H153.102C148.671 16.0542 147.025 19.3084 147.025 23.8105ZM156.427 36.4242V27.587C156.427 25.1459 157.286 23.3138 159.722 23.3138H177.098C180.028 23.3138 180.393 25.2548 180.393 28.3741V36.4242C180.393 38.6358 179.641 39.9652 177.098 39.9652H159.722C157.553 39.9652 156.427 39.1933 156.427 36.4242Z" fill="#FA741C"/>
<path d="M6.98227 33.5463V10.3636C6.89917 8.69749 7.2039 8.11741 8.65254 7.99014H16.0497C17.6406 7.9382 18.3133 8.20805 18.3166 10.3636V32.4162C18.716 34.9466 19.2769 35.5763 21.6572 33.5463L42.1784 11.3378C48.0166 5.14846 61.0292 8.57144 61.0292 18.6835V45.7305C61.0654 46.8655 60.532 47.22 59.5574 47.3126H52.2143C50.5504 47.2486 49.7351 46.6647 49.8142 45.0524V21.3958C49.8142 19.0785 48.2919 18.5982 46.3542 20.6047L24.67 43.9862C17.4962 50.4394 6.98227 44.8409 6.98227 33.5463Z" fill="#FA741C"/>
<path d="M292.074 36.5414V17.7605C292.009 16.4459 292.249 15.9882 293.392 15.8878H299.562C300.817 15.8468 301.348 16.0597 301.35 17.7605V35.6497C301.666 37.6462 302.108 38.143 303.986 36.5414L319.093 18.5292C323.7 13.6456 334.317 16.3465 334.317 24.3252V46.4945C334.345 47.39 333.924 47.6698 333.155 47.7429H327.012C325.699 47.6924 325.056 47.2316 325.118 45.9595V26.4653C325.118 24.6368 323.917 24.2579 322.388 25.8411L306.363 44.7787C300.891 50.2008 292.074 45.4531 292.074 36.5414Z" fill="#FA741C"/>
<path d="M303.785 10.761C303.785 9.82313 304.588 9.06286 305.578 9.06286H319.92C320.91 9.06286 321.713 9.82313 321.713 10.761V12.4591C321.713 13.3969 320.91 14.1572 319.92 14.1572H305.578C304.588 14.1572 303.785 13.3969 303.785 12.4591V10.761Z" fill="#FA741C"/>
<path fill-rule="evenodd" clip-rule="evenodd" d="M247.011 15.7942H275.25C283.99 15.8596 286.36 18.1183 286.439 25.8687V46.2042C286.456 47.0531 286.209 47.2777 285.455 47.3689H278.489C277.515 47.4099 277.259 47.2443 277.198 46.7284V46.0525C277.198 44.7734 276.826 45.2932 276.482 45.5902L276.191 45.8637C275.126 46.7998 273.72 47.3689 272.179 47.3689H251.572C248.246 47.3689 245.549 44.7169 245.549 41.4455V33.7078C245.549 30.4363 248.246 27.7843 251.572 27.7843H272.179C274.026 27.7843 275.678 28.6016 276.783 29.8885L276.924 30.0592C277.121 30.3212 277.426 30.1895 277.393 29.5659L277.36 29.1362C277.332 28.7282 277.315 28.5694 277.26 28.1521C277.155 27.3531 277.008 26.5693 276.868 26.2522C276.729 25.9351 275.873 22.9199 271.369 22.9199H247.011C245.874 22.9462 245.526 22.6825 245.549 21.5962V16.8312C245.593 16.0781 245.859 15.8073 247.011 15.7942ZM254.197 34.3743C252.909 34.3743 251.865 35.4009 251.865 36.6673V38.532C251.865 39.7983 252.909 40.8249 254.197 40.8249H270.133C271.421 40.8249 272.465 39.7983 272.465 38.532V36.6673C272.465 35.4009 271.421 34.3743 270.133 34.3743H254.197Z" fill="#FA741C"/>
<path fill-rule="evenodd" clip-rule="evenodd" d="M129.744 65.3043C126.13 58.8479 131.394 51.1412 139.106 50.9366C153.515 50.5542 164.987 48.0997 178.105 42.4746C185.156 39.4508 193.508 44.1943 193.248 51.5216L192.776 64.8288C192.604 69.69 188.52 73.574 183.41 74.048C170.502 75.2451 161.061 77.653 148.837 81.8535C144.141 83.467 138.879 81.6237 136.539 77.4436L129.744 65.3043ZM147.817 55.1091L152.764 61.4875L161.083 62.2311L154.349 66.9167L153.564 74.7962L148.617 68.4177L140.298 67.6742L147.032 62.9886L147.817 55.1091ZM175.784 51.8573C174.334 50.9992 172.424 51.417 171.518 52.7906C170.612 54.1642 171.053 55.9733 172.503 56.8315C173.953 57.6896 175.863 57.2718 176.769 55.8982C177.675 54.5246 177.234 52.7155 175.784 51.8573ZM171.41 58.4892C169.96 57.6311 168.05 58.0489 167.144 59.4225C166.238 60.7961 166.679 62.6052 168.129 63.4634C169.579 64.3215 171.489 63.9037 172.395 62.5301C173.301 61.1565 172.86 59.3474 171.41 58.4892ZM178.52 56.9341C179.426 55.5606 181.336 55.1427 182.786 56.0008C184.236 56.859 184.677 58.6681 183.771 60.0417C182.865 61.4153 180.955 61.8331 179.505 60.975C178.055 60.1169 177.614 58.3077 178.52 56.9341ZM178.412 62.6327C176.962 61.7746 175.052 62.1925 174.146 63.566C173.24 64.9396 173.681 66.7488 175.131 67.6069C176.581 68.465 178.491 68.0472 179.397 66.6736C180.303 65.3 179.862 63.4909 178.412 62.6327Z" fill="#1CA1FB"/>
<path fill-rule="evenodd" clip-rule="evenodd" d="M157.023 37.7244C159.184 37.5995 161.359 37.8406 163.444 38.4443C165.883 39.1506 167.994 40.0426 169.855 41.5014C170.707 42.1698 171.859 42.3975 172.818 41.9338C174.315 41.2098 174.622 39.2429 173.284 38.208C170.787 36.2764 167.788 34.6214 164.943 33.7977C162.37 33.0527 159.69 32.7384 157.023 32.8586V37.7244Z" fill="#1CA1FB"/>
</svg>
