<svg width="328" height="71" viewBox="0 0 328 71" fill="none" xmlns="http://www.w3.org/2000/svg">
<path fill-rule="evenodd" clip-rule="evenodd" d="M26.235 0.280004C25.841 1.77337 24.7059 5.88681 24.6925 5.89348C24.6792 5.90014 24.372 5.97348 24.0048 6.06015C23.6375 6.14681 22.9765 6.31349 22.5425 6.44682L21.7412 6.67349L19.5911 4.52678C17.5879 2.52673 17.4277 2.38006 17.2808 2.44672C17.1472 2.50673 10.5434 6.32015 10.5033 6.36015C10.4967 6.36682 10.8439 7.69352 11.2712 9.30023L12.0591 12.227L10.9707 13.3137C10.3698 13.9137 9.84897 14.4004 9.81558 14.4004C9.77552 14.4004 8.44674 14.0537 6.86423 13.6337C5.28172 13.2137 3.97965 12.8736 3.9663 12.8803C3.9062 12.947 0 19.6938 0 19.7405C0 19.7672 0.968203 20.7472 2.15008 21.9205L4.30016 24.0473L4.0531 24.8739C3.99124 25.0839 3.92079 25.334 3.85501 25.575H19.8331C22.2601 21.733 26.5444 19.1813 31.4247 19.1813C38.8355 19.1813 44.872 25.0651 45.1177 32.416L38.1091 28.3636L30.782 32.5876L30.7766 41.045L37.7148 45.0567C35.8311 46.0319 33.6923 46.5828 31.4247 46.5828C26.5444 46.5828 22.2601 44.0311 19.8331 40.1891H3.99332C4.05941 40.4259 4.11919 40.6294 4.15994 40.7543L4.32687 41.2677L2.16343 43.3811C0.974881 44.5411 0 45.5145 0 45.5411C0 45.5945 3.85278 52.2546 3.93959 52.3546C3.9663 52.388 5.29507 52.048 6.88426 51.6013L9.7822 50.7879L10.9374 51.9413L12.0925 53.0946L11.3113 55.9347C10.8839 57.4948 10.5167 58.8015 10.5033 58.8415C10.49 58.8815 11.9323 59.7548 13.7351 60.8015C15.5246 61.8349 17.0871 62.7416 17.2006 62.8082L17.401 62.9282L19.4976 60.7815C20.6528 59.6015 21.6277 58.6281 21.6744 58.6148C21.7145 58.6014 22.1418 58.7148 22.6092 58.8548C23.0833 59.0015 23.7644 59.1881 24.1183 59.2748C24.5523 59.3748 24.7793 59.4615 24.806 59.5281C24.8113 59.5519 24.8647 59.7543 24.9501 60.0779C25.0805 60.5717 25.2853 61.3477 25.5072 62.2015C25.6808 62.8577 25.8443 63.4823 25.9737 63.9765C26.123 64.5468 26.2269 64.9435 26.2483 65.0149L26.3151 65.2683H30.3081H34.3078L34.4013 64.8816C34.443 64.7381 34.6168 64.0608 34.8398 63.1914C34.938 62.8089 35.0456 62.3893 35.1558 61.9615L35.8035 59.4215L36.4512 59.2748C36.8051 59.1948 37.5062 59.0081 38.0204 58.8548L38.9418 58.5814L39.9568 59.6081C40.0921 59.7465 40.2512 59.9091 40.4235 60.085C40.9569 60.6298 41.6158 61.3028 42.0801 61.7815L43.1952 62.9216L46.6541 60.9282C49.3517 59.3748 50.1062 58.9081 50.0928 58.8148C50.0795 58.7548 49.8324 57.8548 49.5386 56.8147C49.2515 55.7814 48.9177 54.5547 48.9177 54.528C48.8976 54.5147 48.7975 54.1813 48.6906 53.8013L48.497 53.1013L49.6522 51.9613L50.8073 50.8213L51.9959 51.1479C55.7618 52.1813 56.6366 52.4146 56.6566 52.3946C56.67 52.3813 57.5647 50.8346 58.6464 48.9545L60.6162 45.5411L59.2073 44.1544C58.5657 43.5302 57.7934 42.7711 57.3123 42.2981C57.2076 42.1952 57.1167 42.1059 57.0439 42.0344L56.2893 41.301L56.4897 40.6677C56.6032 40.321 56.7968 39.6343 56.9237 39.141C57.0506 38.6476 57.1707 38.2343 57.1841 38.2143C57.2041 38.1943 58.5196 37.8343 60.1087 37.4076L63 36.6276V32.6408V28.654L60.1288 27.8874C58.5529 27.4607 57.2308 27.094 57.2041 27.074C57.1774 27.0473 57.0372 26.5873 56.897 26.0606C56.7568 25.534 56.5698 24.8673 56.483 24.5806L56.3294 24.0606L58.4795 21.9139L60.6296 19.7672L58.6531 16.3337C57.933 15.0854 57.2947 13.9831 56.9433 13.3761C56.7636 13.0657 56.6589 12.8848 56.6566 12.8803C56.6499 12.8736 55.3145 13.227 53.6852 13.667L50.7272 14.467L49.6254 13.367L48.5237 12.267L49.1113 10.1202C49.4318 8.93355 49.7924 7.60685 49.9126 7.16684C50.0394 6.72683 50.1329 6.36682 50.1262 6.36015C50.0661 6.30682 43.242 2.40006 43.2153 2.40006C43.1886 2.40006 42.207 3.36008 41.0251 4.54011L38.8817 6.68016L38.3943 6.53349C38.1272 6.45349 37.4728 6.28682 36.9386 6.16015C36.4045 6.04015 35.9504 5.91347 35.9237 5.88681C35.897 5.85347 35.5564 4.63345 35.1625 3.16674C34.7685 1.70004 34.4146 0.386675 34.3746 0.246671L34.3011 0H30.3081H26.3151L26.235 0.280004Z" fill="#005FE6"/>
<path d="M77.72 55.78C83.576 56.14 87.536 56.32 89.6 56.32C90.152 56.32 90.584 56.164 90.896 55.852C91.232 55.516 91.4 55.072 91.4 54.52V51.1H81.824V46.06H91.4V43C91.4 41.56 90.68 40.84 89.24 40.84H78.08V35.8H90.68C93.2 35.8 95.024 36.376 96.152 37.528C97.304 38.656 97.88 40.48 97.88 43V54.52C97.88 56.872 97.328 58.6 96.224 59.704C95.12 60.808 93.392 61.36 91.04 61.36C87.44 61.36 83 61.12 77.72 60.64V55.78ZM124.884 61H118.404V50.74H109.404V61H102.924V35.8H109.404V45.7H118.404V35.8H124.884V61ZM150.641 61H130.661V35.8H150.641V40.84H137.141V45.7H147.761V50.74H137.141V55.96H150.641V61ZM154.953 35.8H170.073C172.593 35.8 174.417 36.376 175.545 37.528C176.697 38.656 177.273 40.48 177.273 43V46.6C177.273 49.12 176.697 50.956 175.545 52.108C174.417 53.236 172.593 53.8 170.073 53.8H161.433V61H154.953V35.8ZM170.793 43C170.793 41.56 170.073 40.84 168.633 40.84H161.433V48.76H168.633C170.073 48.76 170.793 48.04 170.793 46.6V43ZM188.431 61H181.951V35.8H201.571V40.84H188.431V61ZM221.74 42.64C221.74 41.2 221.02 40.48 219.58 40.48H213.46C212.02 40.48 211.3 41.2 211.3 42.64V54.16C211.3 55.6 212.02 56.32 213.46 56.32H219.58C221.02 56.32 221.74 55.6 221.74 54.16V42.64ZM228.22 54.16C228.22 56.68 227.644 58.516 226.492 59.668C225.364 60.796 223.54 61.36 221.02 61.36H212.02C209.5 61.36 207.664 60.796 206.512 59.668C205.384 58.516 204.82 56.68 204.82 54.16V42.64C204.82 40.12 205.384 38.296 206.512 37.168C207.664 36.016 209.5 35.44 212.02 35.44H221.02C223.54 35.44 225.364 36.016 226.492 37.168C227.644 38.296 228.22 40.12 228.22 42.64V54.16ZM254.877 46.96L249.837 55.96H244.797L239.757 46.96V61H233.277V35.8H240.117L247.317 49.12L254.517 35.8H261.357V61H254.877V46.96ZM271.631 61H264.611L274.151 35.8H281.351L290.891 61H283.871L282.251 56.5H273.251L271.631 61ZM274.871 51.82H280.631L277.751 43.36L274.871 51.82ZM325.809 61H294.129V35.8H300.609V55.96H306.729V35.8H313.209V55.96H319.329V35.8H325.809V61Z" fill="white"/>
<path d="M153.96 27V15.8H156.84V24.76H159.56V15.8H162.44V24.76H165.16V15.8H168.04V24.76H169.24V29.08H166.52L166.36 27H153.96ZM199.562 27H190.682V15.8H199.562V18.04H193.562V20.2H198.283V22.44H193.562V24.76H199.562V27ZM191.962 12.6H194.682V14.84H191.962V12.6ZM195.642 12.6H198.363V14.84H195.642V12.6ZM229.159 15.64C229.425 15.64 229.905 15.6933 230.599 15.8V17.96H229.959C229.799 17.96 229.655 18.0133 229.527 18.12C229.399 18.216 229.303 18.3227 229.239 18.44L227.719 21.32L230.839 27H227.799L225.319 22.44H223.879V27H220.999V15.8H223.879V20.2H225.319L226.919 17.16C227.153 16.712 227.441 16.3493 227.783 16.072C228.135 15.784 228.593 15.64 229.159 15.64ZM261.716 27H258.836V20.12L254.996 27H251.956V15.8H254.836V22.68L258.676 15.8H261.716V27ZM293.563 27H290.683V22.44H286.683V27H283.803V15.8H286.683V20.2H290.683V15.8H293.563V27ZM322.851 18.84C322.851 18.2 322.531 17.88 321.891 17.88H319.171C318.531 17.88 318.211 18.2 318.211 18.84V23.96C318.211 24.6 318.531 24.92 319.171 24.92H321.891C322.531 24.92 322.851 24.6 322.851 23.96V18.84ZM325.731 23.96C325.731 25.08 325.475 25.896 324.963 26.408C324.461 26.9093 323.651 27.16 322.531 27.16H318.531C317.411 27.16 316.595 26.9093 316.083 26.408C315.581 25.896 315.331 25.08 315.331 23.96V18.84C315.331 17.72 315.581 16.9093 316.083 16.408C316.595 15.896 317.411 15.64 318.531 15.64H322.531C323.651 15.64 324.461 15.896 324.963 16.408C325.475 16.9093 325.731 17.72 325.731 18.84V23.96Z" fill="white"/>
</svg>
