<svg width="331" height="57" viewBox="0 0 331 57" fill="none" xmlns="http://www.w3.org/2000/svg">
<path d="M80.8186 40.8967V16.6397H89.9269C92.2534 16.6397 94.0215 17.2884 95.2313 18.5858C96.4644 19.8832 97.0809 21.6672 97.0809 23.9376C97.0809 26.2081 96.4644 27.992 95.2313 29.2895C94.0215 30.5869 92.2534 31.2356 89.9269 31.2356H84.7271V40.8967H80.8186ZM84.7271 28.0036H89.3336C91.7532 28.0036 92.963 26.8916 92.963 24.6674V23.1731C92.963 20.9721 91.7532 19.8716 89.3336 19.8716H84.7271V28.0036Z" fill="white"/>
<path d="M110.677 40.8967H106.804V16.6397H115.912C118.238 16.6397 120.007 17.2884 121.216 18.5858C122.449 19.8832 123.066 21.6672 123.066 23.9376C123.066 25.7911 122.612 27.3202 121.705 28.5249C120.798 29.7296 119.495 30.471 117.796 30.749L123.415 40.8967H119.088L113.923 31.0966H110.677V40.8967ZM115.354 27.9689C117.773 27.9689 118.983 26.8684 118.983 24.6674V23.1731C118.983 20.9721 117.773 19.8716 115.354 19.8716H110.677V27.9689H115.354Z" fill="white"/>
<path d="M132.859 40.8967V16.6397H148.109V19.9064H136.767V26.9611H147.69V30.2278H136.767V37.63H148.109V40.8967H132.859Z" fill="white"/>
<path d="M166.312 41.3137C164.776 41.3137 163.438 41.0357 162.299 40.4796C161.182 39.9004 160.251 39.078 159.507 38.0122C158.785 36.9465 158.25 35.6375 157.901 34.0852C157.552 32.533 157.378 30.7606 157.378 28.7682C157.378 26.7989 157.552 25.0381 157.901 23.4858C158.25 21.9104 158.785 20.5898 159.507 19.5241C160.251 18.4584 161.182 17.6475 162.299 17.0915C163.438 16.5123 164.776 16.2227 166.312 16.2227C167.847 16.2227 169.173 16.5123 170.29 17.0915C171.43 17.6475 172.361 18.4584 173.082 19.5241C173.826 20.5898 174.373 21.9104 174.722 23.4858C175.071 25.0381 175.246 26.7989 175.246 28.7682C175.246 30.7606 175.071 32.533 174.722 34.0852C174.373 35.6375 173.826 36.9465 173.082 38.0122C172.361 39.078 171.43 39.9004 170.29 40.4796C169.173 41.0357 167.847 41.3137 166.312 41.3137ZM166.312 38.0817C168.057 38.0817 169.29 37.433 170.011 36.1356C170.732 34.815 171.093 33.0311 171.093 30.7838V26.7178C171.093 24.4937 170.732 22.7329 170.011 21.4355C169.29 20.1149 168.057 19.4546 166.312 19.4546C164.567 19.4546 163.334 20.1149 162.613 21.4355C161.891 22.7329 161.531 24.4937 161.531 26.7178V30.8185C161.531 33.0427 161.891 34.815 162.613 36.1356C163.334 37.433 164.567 38.0817 166.312 38.0817Z" fill="white"/>
<path d="M188.074 22.2348H187.76V40.8967H184.34V16.6397H189.365L196.519 35.3016H196.833V16.6397H200.253V40.8967H195.228L188.074 22.2348Z" fill="white"/>
<path d="M218.282 41.2442C217.165 41.2442 216.374 41.0125 215.909 40.5491C215.467 40.0858 215.246 39.5182 215.246 38.8463V37.9427C215.246 37.2709 215.467 36.7032 215.909 36.2399C216.374 35.7765 217.165 35.5448 218.282 35.5448C219.399 35.5448 220.178 35.7765 220.62 36.2399C221.085 36.7032 221.318 37.2709 221.318 37.9427V38.8463C221.318 39.5182 221.085 40.0858 220.62 40.5491C220.178 41.0125 219.399 41.2442 218.282 41.2442Z" fill="white"/>
<path d="M246.221 19.9064V40.8967H242.313V19.9064H234.67V16.6397H253.864V19.9064H246.221Z" fill="white"/>
<path d="M262.784 40.8967V16.6397H278.034V19.9064H266.692V26.9611H277.615V30.2278H266.692V37.63H278.034V40.8967H262.784Z" fill="white"/>
<path d="M296.935 41.3137C293.841 41.3137 291.538 40.2248 290.025 38.047C288.536 35.8692 287.792 32.7762 287.792 28.7682C287.792 24.7601 288.536 21.6672 290.025 19.4894C291.538 17.3116 293.841 16.2227 296.935 16.2227C298.122 16.2227 299.145 16.3848 300.006 16.7092C300.89 17.0104 301.646 17.439 302.274 17.995C302.903 18.5279 303.426 19.165 303.845 19.9064C304.287 20.6246 304.647 21.4007 304.927 22.2348L301.402 23.4163C301.216 22.8603 301.006 22.339 300.774 21.8525C300.541 21.366 300.25 20.9489 299.901 20.6014C299.552 20.2539 299.134 19.9759 298.645 19.7674C298.18 19.5589 297.598 19.4546 296.9 19.4546C295.179 19.4546 293.922 20.1149 293.131 21.4355C292.34 22.7329 291.945 24.4937 291.945 26.7178V30.8185C291.945 33.0427 292.34 34.815 293.131 36.1356C293.922 37.433 295.179 38.0817 296.9 38.0817C297.598 38.0817 298.18 37.9775 298.645 37.769C299.134 37.5605 299.552 37.2824 299.901 36.9349C300.25 36.5874 300.541 36.1704 300.774 35.6838C301.006 35.1973 301.216 34.676 301.402 34.12L304.927 35.3016C304.647 36.1356 304.287 36.9233 303.845 37.6647C303.426 38.3829 302.903 39.02 302.274 39.5761C301.646 40.1089 300.89 40.5376 300.006 40.8619C299.145 41.1631 298.122 41.3137 296.935 41.3137Z" fill="white"/>
<path d="M326.27 30.2278H318.174V40.8967H314.266V16.6397H318.174V26.9611H326.27V16.6397H330.179V40.8967H326.27V30.2278Z" fill="white"/>
<path d="M22.9377 23.4131L0.416347 28.2639L28.8002 0.976099L22.9377 23.4131Z" fill="#203C9C"/>
<path d="M37.7474 19.7738L28.8006 0.975915L57.8012 28.2625L37.7474 19.7738Z" fill="#02AAEB"/>
<path d="M28.8057 0.97462L37.7474 19.7738L22.9388 23.4122L28.8057 0.97462Z" fill="#0F5DB8"/>
<path d="M22.938 23.4125L37.7465 19.7742L34.3529 34.6306L20.1614 37.6625L22.938 23.4125Z" fill="#2B2C8C"/>
<path d="M0.41481 28.264L22.9358 23.4129L20.1617 37.6623L0.41481 28.264Z" fill="#2D277D"/>
<path d="M20.1613 37.6621L28.8003 56.1572L0.417191 28.2635L20.1613 37.6621Z" fill="#341E51"/>
<path d="M37.7448 19.7747L57.8 28.2634L34.3531 34.6305L37.7448 19.7747Z" fill="#351940"/>
<path d="M28.8005 56.157L20.1592 37.6622L34.3511 34.6302L28.8005 56.157Z" fill="#312266"/>
<path d="M34.3509 34.6311L57.8 28.2633L28.8 56.1569L34.3509 34.6311Z" fill="#341735"/>
</svg>
