<svg width="102" height="69" viewBox="0 0 102 69" fill="none" xmlns="http://www.w3.org/2000/svg">
<path d="M34.1865 58.3479L18.3075 67.4153L18.3075 48.9602L34.1807 40.1914L34.1865 58.3479ZM17.5021 29.7537L33.3333 38.8011L17.4932 47.5516L1.66043 38.8469L17.5021 29.7537ZM0.813346 58.3467V40.2375L16.6808 48.9613L16.6808 67.4148L0.813346 58.3467Z" fill="#F87453" stroke="#D6D6D6" stroke-width="1.62669"/>
<path d="M50.8692 29.7537L66.7005 38.8011L50.8604 47.5516L35.0276 38.8469L50.8692 29.7537ZM34.1805 58.3467V40.2375L50.048 48.9613L50.048 67.4148L34.1805 58.3467ZM67.5537 58.3479L51.6747 67.4153L51.6747 48.9602L67.5479 40.1914L67.5537 58.3479Z" fill="#F87453" stroke="#D6D6D6" stroke-width="1.62669"/>
<path d="M50.8701 29.7151L34.9911 38.7825L34.9911 20.3274L50.8643 11.5586L50.8701 29.7151ZM34.1856 1.1209L50.0169 10.1683L34.1768 18.9188L18.344 10.2141L34.1856 1.1209ZM17.4969 29.7139V11.6047L33.3644 20.3285L33.3644 38.782L17.4969 29.7139Z" fill="#F87453" stroke="#D6D6D6" stroke-width="1.62669"/>
<path d="M100.921 58.3479L85.0419 67.4153L85.0419 48.9602L100.915 40.1914L100.921 58.3479ZM84.2364 29.7537L100.068 38.8011L84.2276 47.5516L68.3948 38.8469L84.2364 29.7537ZM67.5477 58.3467V40.2375L83.4152 48.9613L83.4152 67.4148L67.5477 58.3467Z" fill="#F87453" stroke="#D6D6D6" stroke-width="1.62669"/>
<path d="M84.29 29.7151L68.411 38.7825L68.411 20.3274L84.2842 11.5586L84.29 29.7151ZM67.6056 1.1209L83.4369 10.1683L67.5967 18.9188L51.7639 10.2141L67.6056 1.1209ZM50.9169 29.7139V11.6047L66.7843 20.3285L66.7843 38.782L50.9169 29.7139Z" fill="#F87453" stroke="#D6D6D6" stroke-width="1.62669"/>
</svg>
