<svg width="150" height="25" viewBox="0 0 150 25" fill="none" xmlns="http://www.w3.org/2000/svg">
<g opacity="0.5">
<path fill-rule="evenodd" clip-rule="evenodd" d="M7.6016 1.46494H0.970215L8.5899 12.1548L0.970215 22.8814H7.6016L15.2239 12.1548L7.6016 1.46494Z" fill="white"/>
<path d="M16.0278 6.25595H19.2113L21.6591 10.2437L24.1921 6.25595H27.1969L23.1985 12.2139L27.5464 18.74H24.2778L21.5538 14.4203L18.7735 18.74H15.6953L20.0517 12.1974L16.0278 6.25595Z" fill="white"/>
<path d="M31.1167 8.31815L30.6278 11.1011L30.6645 11.1352C31.0055 10.7974 31.3661 10.5527 31.7496 10.408C32.1332 10.2596 32.5704 10.1894 33.0587 10.1894C33.6667 10.1894 34.2028 10.3001 34.6688 10.5213C35.1342 10.7431 35.5294 11.0384 35.8502 11.4102C36.1709 11.782 36.4156 12.2192 36.5853 12.7283C36.756 13.2341 36.8411 13.7703 36.8411 14.341C36.8411 14.9745 36.7161 15.5564 36.472 16.0937C36.2284 16.6362 35.8954 17.107 35.4837 17.5022C35.0661 17.8995 34.5863 18.2006 34.0411 18.416C33.4906 18.6325 32.9108 18.7346 32.2917 18.7229C31.6954 18.7229 31.1273 18.6437 30.5853 18.4852C30.0454 18.3288 29.5656 18.0868 29.1454 17.7634C28.7246 17.4341 28.3901 17.0314 28.1401 16.5479C27.8901 16.0655 27.7592 15.5027 27.748 14.8612H30.2305C30.2874 15.4208 30.497 15.8666 30.8608 16.1953C31.2188 16.5283 31.6789 16.6958 32.2385 16.6958C32.5651 16.6958 32.8603 16.6299 33.1188 16.4969C33.3826 16.3628 33.6044 16.19 33.7858 15.974C33.9645 15.7586 34.1039 15.5086 34.2034 15.2245C34.3055 14.9378 34.3539 14.6447 34.3539 14.3442C34.3539 14.032 34.3055 13.7341 34.2113 13.4559C34.1209 13.1799 33.9789 12.9362 33.7943 12.7261C33.6066 12.5155 33.3879 12.3511 33.1268 12.2378C32.8715 12.1208 32.5762 12.0671 32.2379 12.0671C31.7949 12.0671 31.4342 12.141 31.156 12.3001C30.872 12.4591 30.6108 12.7038 30.3667 13.0442H28.1316L29.3385 6.27347H36.1773V8.31868H31.1167" fill="white"/>
<path d="M44.8245 6.25595C45.3351 6.25595 45.8213 6.31606 46.2841 6.44691C46.741 6.57404 47.1442 6.76712 47.4883 7.03414C47.8319 7.29584 48.1048 7.63308 48.3091 8.04531C48.5107 8.45967 48.616 8.9485 48.616 9.51074C48.616 10.3028 48.4117 10.9932 48.0027 11.5719C47.5931 12.1549 46.991 12.5262 46.1851 12.6911V12.7283C46.5942 12.7873 46.9319 12.8932 47.2016 13.0496C47.4686 13.2081 47.6899 13.407 47.8607 13.6517C48.0282 13.9017 48.15 14.1799 48.2266 14.5038C48.3032 14.8219 48.3516 15.1682 48.3771 15.54C48.3883 15.7501 48.4 16.006 48.4112 16.3097C48.4224 16.6139 48.4447 16.9177 48.4819 17.2278C48.5128 17.5368 48.5724 17.8294 48.6495 18.099C48.7234 18.3772 48.8255 18.5873 48.9532 18.7411H47.6351C47.5644 18.6219 47.5101 18.4799 47.4676 18.3123C47.4277 18.1448 47.3995 17.9682 47.3825 17.7873C47.3654 17.6081 47.3484 17.4294 47.3373 17.2533C47.3256 17.0767 47.3144 16.9294 47.3 16.7985C47.2771 16.3586 47.2431 15.9182 47.1894 15.481C47.1351 15.0464 47.0245 14.6575 46.8543 14.3134C46.6867 13.9671 46.4426 13.6948 46.1218 13.4841C45.8032 13.2708 45.3633 13.1799 44.8043 13.2028H40.3053V18.7405H39.1069V6.25648H44.8245M44.7335 12.1804C45.0942 12.1804 45.4404 12.1262 45.7644 12.0155C46.091 11.9049 46.3777 11.7427 46.6218 11.5352C46.866 11.3278 47.0596 11.0692 47.2069 10.7767C47.349 10.482 47.4202 10.1411 47.4202 9.75489C47.4202 8.98574 47.2011 8.38042 46.7585 7.93733C46.3181 7.49425 45.6452 7.2751 44.7335 7.2751H40.3059V12.1799H44.7335V12.1804Z" fill="white"/>
<path d="M59.0325 6.25595V7.27563H51.6065V11.7708H58.5612V12.7937H51.6065V17.7177H59.1203V18.74H50.4128V6.25595H59.0325Z" fill="white"/>
<path d="M69.6649 6.25595V7.27563H65.3118V18.74H64.1213V7.27563H59.7852V6.25595H69.6649Z" fill="white"/>
<path d="M74.0666 6.25595L78.957 18.74H77.6847L76.1623 14.8549H70.482L68.9799 18.74H67.7219L72.7373 6.25595H74.0666ZM75.7623 13.8336L73.349 7.43521L70.8522 13.8336H75.7623Z" fill="white"/>
<path d="M81.3708 6.25061H80.1777V18.74H81.3708V6.25061Z" fill="white"/>
<path d="M85.1655 6.25595V17.7177H92.157V18.74H83.9719V6.25595H85.1655Z" fill="white"/>
<path d="M99.2047 19.2129C98.2271 19.2129 97.3526 19.0389 96.5861 18.6767C95.8308 18.3208 95.1914 17.8411 94.6835 17.2262C94.1771 16.6198 93.7962 15.9028 93.5398 15.0911C93.2819 14.2799 93.1553 13.4129 93.1553 12.5001C93.1553 11.5682 93.2946 10.6996 93.568 9.87988C93.8473 9.0602 94.2462 8.34318 94.7638 7.73892C95.2835 7.12563 95.9207 6.64318 96.667 6.29478C97.417 5.94531 98.2696 5.76978 99.2159 5.76978C99.934 5.76978 100.6 5.87297 101.213 6.07669C101.823 6.28254 102.363 6.57829 102.831 6.95754C103.296 7.34212 103.68 7.80009 103.975 8.33148C104.277 8.86605 104.477 9.46924 104.588 10.1246L104.628 10.3586H104.39H103.87L103.84 10.1921C103.741 9.6352 103.56 9.13573 103.3 8.67988C103.036 8.22722 102.712 7.84424 102.315 7.52509C101.92 7.20329 101.463 6.95648 100.941 6.78148C100.425 6.60701 99.8478 6.5219 99.2148 6.5219C98.3654 6.5219 97.6186 6.67829 96.968 6.98999C96.3095 7.30488 95.7574 7.73095 95.3058 8.26658C94.851 8.80595 94.5031 9.43573 94.2659 10.1639C94.0281 10.8916 93.9101 11.673 93.9101 12.5006C93.9101 13.3336 94.0255 14.1171 94.2537 14.8485C94.4766 15.574 94.8127 16.2091 95.2617 16.7437C95.7042 17.2756 96.2643 17.7012 96.9297 18.0187C97.592 18.3278 98.3659 18.4884 99.2611 18.4884C99.9292 18.4884 100.547 18.3735 101.123 18.1437C101.707 17.9134 102.217 17.5932 102.642 17.1884C103.071 16.7847 103.404 16.3006 103.653 15.7357C103.896 15.1708 104.019 14.5623 104.019 13.9012V13.4544H99.1803V13.2544V12.907V12.7065H104.777V18.9352H104.576H104.018L104.024 16.5533C103.658 17.2565 103.141 17.8363 102.483 18.2863C101.571 18.9065 100.476 19.2129 99.2132 19.2129C99.2122 19.2129 99.209 19.2129 99.2047 19.2129Z" fill="white"/>
<path d="M105.993 18.94H105.793V6.06018H111.113C112.447 6.06178 113.454 6.31656 114.12 6.88624C114.784 7.45114 115.111 8.32454 115.139 9.45593C115.142 9.49582 115.142 9.53518 115.142 9.57507C115.142 10.4006 114.901 11.1091 114.421 11.6756C114.058 12.1065 113.58 12.4341 112.999 12.6591C113.231 12.7267 113.439 12.8096 113.624 12.9096C113.977 13.1043 114.258 13.365 114.45 13.6916C114.637 14.0075 114.764 14.3783 114.827 14.7995C114.883 15.2086 114.911 15.6596 114.911 16.1735C114.911 16.3352 114.922 16.5565 114.932 16.8176C114.943 17.0772 114.962 17.3336 114.983 17.5852C115.009 17.8378 115.035 18.0644 115.068 18.2719C115.099 18.4682 115.147 18.5932 115.173 18.6235L115.405 18.9416H115.01H114.5L114.446 18.8288C114.37 18.6724 114.32 18.4862 114.28 18.2533C114.246 18.0352 114.217 17.7958 114.202 17.5458C114.186 17.299 114.169 17.0522 114.165 16.7979C114.159 16.5432 114.154 16.3203 114.154 16.1171C114.154 15.6144 114.119 15.1676 114.044 14.7788C113.973 14.407 113.834 14.1049 113.629 13.8591C113.423 13.6192 113.121 13.4245 112.723 13.2884C112.319 13.1538 111.762 13.0799 111.055 13.0799H106.553V18.941H106.351H105.993V18.94ZM111.023 12.3368C111.474 12.3368 111.899 12.2793 112.311 12.1639C112.711 12.0575 113.066 11.8846 113.367 11.6432C113.672 11.4059 113.913 11.1118 114.102 10.7405C114.282 10.3846 114.376 9.95061 114.376 9.4272C114.362 8.5788 114.114 7.95752 113.635 7.49901C113.169 7.05752 112.363 6.8139 111.202 6.81497L106.553 6.8139V12.3373H111.023V12.3368Z" fill="white"/>
<path d="M119.131 18.6761C118.39 18.3187 117.764 17.833 117.264 17.216C116.766 16.599 116.385 15.8841 116.127 15.0671C115.871 14.2575 115.738 13.3979 115.738 12.4931C115.738 11.5868 115.871 10.7251 116.127 9.91655C116.385 9.09846 116.766 8.38463 117.264 7.76868C117.764 7.15006 118.39 6.66017 119.13 6.30272C119.879 5.9357 120.735 5.75378 121.69 5.75378C122.649 5.75378 123.504 5.9357 124.249 6.30272C124.99 6.66017 125.619 7.15059 126.12 7.76868C126.619 8.38463 126.999 9.09846 127.258 9.91495C127.514 10.7251 127.643 11.5868 127.643 12.4931C127.643 13.3969 127.514 14.2554 127.258 15.0671C127 15.8841 126.619 16.599 126.12 17.216C125.619 17.833 124.99 18.3187 124.249 18.6761C123.503 19.0378 122.649 19.2139 121.69 19.2139C120.736 19.2139 119.881 19.0378 119.131 18.6761ZM117.91 16.8155C118.351 17.3405 118.889 17.7522 119.527 18.0511C120.159 18.3447 120.877 18.4926 121.689 18.4926C122.506 18.4926 123.224 18.3453 123.859 18.0527C124.496 17.7522 125.032 17.3405 125.474 16.8171C125.91 16.2921 126.256 15.6623 126.499 14.9293C126.743 14.1868 126.871 13.3852 126.882 12.5086C126.871 11.6325 126.743 10.8272 126.499 10.0894C126.256 9.35591 125.911 8.72293 125.474 8.19634C125.032 7.67453 124.496 7.26549 123.859 6.96495C123.224 6.66868 122.506 6.52081 121.689 6.52081C120.877 6.52081 120.159 6.66868 119.528 6.96495C118.887 7.26549 118.351 7.67187 117.91 8.19634C117.47 8.72293 117.127 9.35591 116.881 10.0894C116.64 10.8256 116.513 11.6325 116.502 12.5038C116.513 13.3846 116.64 14.1862 116.881 14.9283V14.9277C117.127 15.6623 117.47 16.2921 117.91 16.8155Z" fill="white"/>
<path d="M138.078 6.05432H138.279V14.0836C138.279 15.7889 137.881 17.0873 137.05 17.9421C136.225 18.7963 135.026 19.2139 133.503 19.2139C133.5 19.2139 133.497 19.2139 133.495 19.2139C131.967 19.2155 130.769 18.7979 129.942 17.9421C129.108 17.0873 128.713 15.7889 128.713 14.0836V6.05432H128.914H129.471V14.0836C129.472 15.5591 129.808 16.6442 130.45 17.3751C131.088 18.0969 132.085 18.4745 133.495 18.4767C134.905 18.4745 135.9 18.0969 136.539 17.3751C137.179 16.6432 137.52 15.5586 137.52 14.0836V6.05432H137.721H138.078Z" fill="white"/>
<path d="M139.604 18.94H139.403V6.06549H144.666C145.896 6.06549 146.881 6.3607 147.595 6.97347C148.307 7.58996 148.665 8.50592 148.664 9.6756C148.664 10.2485 148.557 10.7639 148.348 11.2192C148.137 11.6703 147.845 12.0517 147.469 12.3586C147.098 12.6607 146.655 12.8889 146.15 13.0394C145.646 13.1942 145.088 13.2666 144.491 13.2666H140.162V18.9405H139.961H139.604V18.94ZM144.662 12.507C145.132 12.507 145.566 12.4453 145.964 12.3171C146.362 12.191 146.699 12.0075 146.989 11.7623C147.274 11.5213 147.496 11.2245 147.661 10.8783C147.822 10.5346 147.904 10.1341 147.904 9.66921C147.902 8.71655 147.637 8.02241 147.117 7.54421C146.606 7.06975 145.798 6.81496 144.663 6.81496L140.161 6.8139V12.5075H144.662V12.507Z" fill="white"/>
</g>
</svg>
