<svg width="117" height="31" viewBox="0 0 117 31" fill="none" xmlns="http://www.w3.org/2000/svg">
<g opacity="0.5">
<path d="M58.446 14.4132C58.9508 14.1651 59.0577 13.5004 58.611 13.1477C57.7636 12.4786 56.7434 11.9045 55.7756 11.6197C54.4526 11.2303 53.0465 11.1831 51.6985 11.4829C50.3506 11.7827 49.1084 12.419 48.0967 13.3277C47.3546 13.9941 46.7563 14.9311 46.3305 15.8859C46.106 16.3894 46.5002 16.9338 47.0579 16.9455C47.4223 16.9531 47.7388 16.7205 47.885 16.3913C48.2007 15.6803 48.6494 15.1155 49.2798 14.5493C50.0688 13.8406 51.0376 13.3444 52.0889 13.1105C53.1402 12.8767 54.2368 12.9135 55.2686 13.2172C56.0927 13.4597 56.8058 13.766 57.4344 14.2665C57.7238 14.4969 58.1179 14.5745 58.446 14.4132Z" fill="#9B9B9B"/>
<path d="M104.289 18.3119V21.5481H105.669V18.8062H107.722V17.64H105.003C104.546 17.64 104.289 17.8717 104.289 18.3119Z" fill="#9B9B9B"/>
<path d="M109.695 21.6254C110.577 21.6254 111.107 21.2006 111.315 20.629V21.5481H112.686V17.64H111.315V19.0457C111.315 20.1501 110.874 20.4591 110.2 20.4591C109.591 20.4591 109.39 20.2042 109.39 19.5014V17.64H108.011V19.7099C108.011 20.938 108.644 21.6254 109.695 21.6254Z" fill="#9B9B9B"/>
<path d="M22.9442 16.2661C22.6737 16.2334 22.6031 16.0985 22.611 15.7045L22.611 8.09503C22.611 6.48372 23.7533 5.50062 25.4439 5.50062H33.4426C33.8519 5.4835 33.9631 5.574 33.9703 5.87499V7.63358C33.9743 7.98053 33.8924 8.05 33.6787 8.07495H27.295C26.105 8.10612 25.7102 8.33144 25.7397 9.29194V15.7045C25.7553 16.1598 25.657 16.2689 25.3369 16.2661H22.9442Z" fill="white"/>
<path d="M36.2836 5.51943C35.8268 5.51245 35.6676 5.60941 35.6413 6.05211V7.44392C35.652 7.92988 35.7866 8.07846 36.2836 8.07968H44.2556C45.7429 8.07977 45.7158 10.1429 44.2556 10.1449H36.2836C35.77 10.1814 35.6542 10.3186 35.6413 10.6947V15.7052C35.6583 16.1212 35.7468 16.2512 36.0874 16.2723H38.3515C38.6835 16.271 38.7647 16.1581 38.7708 15.8083V13.1776C38.7708 12.8839 38.8777 12.6535 39.3149 12.6535H45.8436C47.564 12.6343 48.0024 12.1727 48.0203 10.6947V7.30646C48.0555 5.75806 47.4405 5.50028 45.8436 5.51943H36.2836Z" fill="white"/>
<path d="M66.8325 3.08126C66.2721 3.07269 66.0768 3.19163 66.0446 3.73472V5.44212C66.0576 6.03827 66.2227 6.22053 66.8325 6.22203H76.6121C78.4366 6.22214 78.4034 8.75306 76.6121 8.75549H66.8325C66.2024 8.8003 66.0604 8.96858 66.0446 9.43001V15.5766C66.0654 16.0869 66.174 16.2464 66.5918 16.2722H69.2402C69.6475 16.2707 69.7471 16.1322 69.7545 15.7031V12.4759C69.7545 12.1156 69.8857 11.833 70.4221 11.833H78.5601C80.6706 11.8094 81.2085 11.2431 81.2304 9.43001V5.27349C81.2735 3.374 80.5192 3.05776 78.5601 3.08126H66.8325Z" fill="white"/>
<path fill-rule="evenodd" clip-rule="evenodd" d="M49.7164 8.18606V13.6406C49.7164 15.3965 50.4187 16.2788 51.7713 16.2788H62.0989C63.6852 16.2788 64.1539 15.043 64.1539 13.6406V8.68513C64.1539 6.70731 63.578 5.47655 62.0989 5.47655H51.7713C50.2729 5.51943 49.7164 6.63824 49.7164 8.18606ZM52.8956 12.5227V9.48442C52.8956 8.64518 53.1863 8.01529 54.0098 8.01529H59.8855C60.8763 8.01529 60.9997 8.68263 60.9997 9.75502V12.5227C60.9997 13.283 60.7457 13.7401 59.8855 13.7401H54.0098C53.2764 13.7401 52.8956 13.4747 52.8956 12.5227Z" fill="white"/>
<path d="M2.36093 11.5332V3.56298C2.33283 2.99019 2.43588 2.79075 2.92573 2.747H5.42708C5.96506 2.72914 6.19252 2.82191 6.19363 3.56298V11.1447C6.32869 12.0147 6.51835 12.2311 7.32327 11.5332L14.2625 3.89794C16.2367 1.77002 20.6369 2.94685 20.6369 6.42341V15.7222C20.6491 16.1124 20.4688 16.2343 20.1392 16.2661H17.6562C17.0935 16.2441 16.8178 16.0434 16.8445 15.4891V7.35589C16.8445 6.5592 16.3298 6.39407 15.6746 7.08391L8.34205 15.1225C5.91623 17.3411 2.36093 15.4163 2.36093 11.5332Z" fill="white"/>
<path d="M98.7648 12.563V6.10606C98.7426 5.6541 98.824 5.49675 99.2105 5.46222H101.297C101.721 5.44813 101.901 5.52133 101.902 6.10606V12.2564C102.008 12.9428 102.158 13.1136 102.793 12.563L107.901 6.37035C109.459 4.69136 113.049 5.61991 113.049 8.36302V15.9849C113.059 16.2927 112.916 16.3889 112.656 16.414H110.579C110.135 16.3967 109.917 16.2383 109.939 15.8009V9.09877C109.939 8.47016 109.532 8.33987 109.015 8.88418L103.597 15.395C101.746 17.2591 98.7648 15.6268 98.7648 12.563Z" fill="white"/>
<path d="M102.725 3.69961C102.725 3.37718 102.996 3.1158 103.331 3.1158H108.181C108.516 3.1158 108.787 3.37718 108.787 3.69961V4.28343C108.787 4.60586 108.516 4.86724 108.181 4.86724H103.331C102.996 4.86724 102.725 4.60586 102.725 4.28343V3.69961Z" fill="white"/>
<path fill-rule="evenodd" clip-rule="evenodd" d="M83.5268 5.43003H93.0756C96.0312 5.45254 96.8326 6.22907 96.8592 8.89368V15.8851C96.8652 16.1769 96.7814 16.2541 96.5266 16.2855H94.1709C93.8417 16.2996 93.7552 16.2426 93.7343 16.0653V15.8329C93.7343 15.3932 93.6086 15.5718 93.4923 15.674L93.3939 15.768C93.0337 16.0898 92.5584 16.2855 92.0374 16.2855H85.069C83.9442 16.2855 83.0325 15.3737 83.0325 14.249V11.5888C83.0325 10.464 83.9442 9.55226 85.069 9.55226H92.0374C92.6618 9.55226 93.2205 9.83326 93.5941 10.2757L93.6418 10.3344C93.7085 10.4245 93.8114 10.3792 93.8005 10.1648L93.7892 10.017C93.7797 9.87678 93.7741 9.82219 93.7555 9.6787C93.72 9.40402 93.6701 9.13455 93.6229 9.02553C93.5758 8.91652 93.2866 7.87986 91.7634 7.87986H83.5268C83.1421 7.8889 83.0247 7.79824 83.0325 7.42479V5.78656C83.0473 5.52764 83.1373 5.43456 83.5268 5.43003ZM85.9565 11.8179C85.5211 11.8179 85.1682 12.1709 85.1682 12.6062V13.2473C85.1682 13.6827 85.5211 14.0356 85.9565 14.0356H91.3455C91.7809 14.0356 92.1338 13.6827 92.1338 13.2473V12.6062C92.1338 12.1709 91.7809 11.8179 91.3455 11.8179H85.9565Z" fill="white"/>
<path fill-rule="evenodd" clip-rule="evenodd" d="M43.8729 22.4517C42.6507 20.232 44.4307 17.5825 47.0385 17.5121C51.911 17.3806 55.7905 16.5368 60.2262 14.6028C62.6105 13.5633 65.4348 15.1941 65.3469 17.7132L65.1874 22.2883C65.1291 23.9595 63.7481 25.2949 62.02 25.4578C57.6554 25.8694 54.4628 26.6972 50.3292 28.1414C48.7414 28.6961 46.962 28.0624 46.1707 26.6253L43.8729 22.4517ZM49.9844 18.9466L51.6571 21.1395L54.47 21.3952L52.193 23.0061L51.9275 25.7151L50.2548 23.5221L47.4419 23.2665L49.7189 21.6556L49.9844 18.9466ZM59.4414 17.8287C58.951 17.5336 58.3051 17.6773 57.9988 18.1495C57.6924 18.6218 57.8416 19.2437 58.332 19.5388C58.8223 19.8338 59.4682 19.6901 59.7745 19.2179C60.0809 18.7457 59.9317 18.1237 59.4414 17.8287ZM57.9622 20.1087C57.4719 19.8137 56.826 19.9573 56.5197 20.4296C56.2133 20.9018 56.3625 21.5238 56.8529 21.8188C57.3432 22.1139 57.9891 21.9702 58.2954 21.498C58.6018 21.0257 58.4526 20.4037 57.9622 20.1087ZM60.3665 19.5741C60.6728 19.1018 61.3187 18.9582 61.8091 19.2532C62.2994 19.5482 62.4486 20.1702 62.1422 20.6425C61.8359 21.1147 61.19 21.2584 60.6997 20.9633C60.2093 20.6683 60.0601 20.0463 60.3665 19.5741ZM60.3299 21.5333C59.8396 21.2382 59.1937 21.3819 58.8874 21.8541C58.581 22.3264 58.7302 22.9483 59.2206 23.2434C59.7109 23.5384 60.3568 23.3948 60.6631 22.9225C60.9695 22.4503 60.8203 21.8283 60.3299 21.5333Z" fill="#9B9B9B"/>
<path fill-rule="evenodd" clip-rule="evenodd" d="M53.0974 12.9697C53.8279 12.9268 54.5634 13.0097 55.2685 13.2172C56.0925 13.4598 56.8057 13.766 57.4343 14.2666C57.7237 14.497 58.1178 14.5745 58.4459 14.4133C58.9507 14.1651 59.0576 13.5005 58.6109 13.1478C57.7635 12.4786 56.7433 11.9046 55.7755 11.6197C54.9054 11.3636 53.9993 11.2555 53.0974 11.2968V12.9697Z" fill="#9B9B9B"/>
</g>
</svg>
