<svg width="60" height="60" viewBox="0 0 60 60" fill="none" xmlns="http://www.w3.org/2000/svg">
<g opacity="0.5">
<path fill-rule="evenodd" clip-rule="evenodd" d="M53.7886 40.9889C54.4863 26.3761 41.9012 9.92007 24.744 7.886L24.7733 7.68631C41.6876 7.68631 54.6543 23.3656 54.6543 35.7352C54.6381 38.3101 54.435 39.9055 54.0728 41.0638L53.7886 40.9889ZM52.7637 42.8463C51.6384 44.2232 50.223 45.6094 48.5648 46.9255C45.5143 29.3578 32.622 13.9961 23.5071 9.51231L23.3119 9.64858C32.4786 17.1816 43.4118 31.8122 47.6635 47.6147C45.6295 49.1157 43.2783 50.4973 40.6806 51.6189C32.0305 41.7415 23.9662 22.6921 21.3674 10.604L21.1031 10.6837C21.1617 22.4175 29.4814 42.3369 39.6274 52.0565C37.3757 52.946 34.9543 53.6394 32.4116 54.0529C22.6859 50.1949 15.7631 37.8384 15.7631 25.1806C15.7631 16.9175 18.2792 11.8058 18.766 10.7597L18.5587 10.6774C17.9699 11.5695 14.2839 16.6785 14.2839 25.5994C14.2839 39.9071 21.3307 50.8432 30.6864 54.2872C27.4856 54.6357 24.1174 54.5303 20.6618 53.816L20.5922 54.034C21.593 54.403 24.9884 55.8301 30.1682 55.8301C41.8839 55.8301 49.8038 48.5413 52.9919 43.0009L52.7637 42.8463Z" fill="#828282"/>
<path fill-rule="evenodd" clip-rule="evenodd" d="M28.9968 2.52328C20.1154 2.52328 9.70142 8.94155 9.70142 14.8085C9.70142 17.0779 11.7747 18.9951 16.0657 18.9951C26.0269 18.9951 35.2815 12.1423 35.2815 6.81366C35.2815 4.00967 32.5922 2.52328 28.9968 2.52328ZM32.5424 6.64804C32.5424 11.1397 23.9285 16.6303 16.7278 16.6303C13.5465 16.6303 11.8275 15.3766 11.8275 13.3079C11.8275 8.75183 20.5394 3.35453 27.2936 3.35453C31.6971 3.35453 32.5424 5.59825 32.5424 6.64804Z" fill="#D0D0D0"/>
<path fill-rule="evenodd" clip-rule="evenodd" d="M6.16298 17.5251C5.91331 17.9575 4.91357 19.9177 4.91357 21.9261C4.91357 25.651 8.67226 29.109 15.5856 29.109C28.8852 29.109 44.2507 19.3066 44.2507 10.2075C44.2507 6.12308 40.3894 3.90242 37.7085 3.4433L37.6582 3.60263C38.492 3.86678 41.5467 5.28869 41.5467 8.92708C41.5467 16.1771 27.9802 26.0556 14.4665 26.0556C9.29303 26.0556 6.03369 23.4984 6.03369 19.7736C6.03369 18.5954 6.27866 17.8192 6.34356 17.5943L6.16298 17.5251Z" fill="#B9B9B9"/>
<path fill-rule="evenodd" clip-rule="evenodd" d="M49.7342 10.8876C50.0991 11.1649 52.2896 12.993 52.2896 16.45C52.2896 28.2373 33.8453 39.828 17.5392 39.828C7.81507 39.828 3.38222 35.0203 3.5785 30.7514H3.7528C4.13385 32.9684 7.29112 36.9354 15.8019 36.9354C32.1285 36.9354 50.3576 24.9422 50.3576 14.4343C50.3576 12.6318 49.8688 11.5087 49.5924 11.0092L49.7342 10.8876Z" fill="#A8A6A6"/>
<path fill-rule="evenodd" clip-rule="evenodd" d="M55.899 21.8918C55.9754 22.1429 56.3726 23.2713 56.3726 25.0386C56.3726 38.1508 37.707 49.3763 21.4731 49.3763C13.1177 49.3763 8.75447 45.3123 7.83325 43.6619L7.9819 43.5518C10.2939 45.5764 14.8476 47.1147 20.1619 47.1147C34.4994 47.1147 55.8932 36.1922 55.7021 21.9395L55.899 21.8918Z" fill="#ACACAC"/>
</g>
</svg>
