<svg width="60" height="60" viewBox="0 0 60 60" fill="none" xmlns="http://www.w3.org/2000/svg">
<g opacity="0.5">
<rect width="60" height="60" rx="30" fill="#A2A2A2"/>
<path fill-rule="evenodd" clip-rule="evenodd" d="M34.5379 28.0802C35.0197 27.771 35.6707 27.8964 35.9919 28.3602L36.168 28.6144L36.3442 28.3602C36.6654 27.8964 37.3164 27.771 37.7982 28.0802C38.2801 28.3894 38.3208 29.1515 38.1031 29.6168C38.1031 29.6168 37.4586 31.1679 36.168 32.2536C34.7161 31.1679 34.2313 29.6168 34.2313 29.6168C33.9641 28.9964 34.056 28.3894 34.5379 28.0802Z" fill="white"/>
<path fill-rule="evenodd" clip-rule="evenodd" d="M31.4877 21.0057C28.2119 20.9 21.6919 22.6541 21.8187 30.5161C21.9772 40.3436 28.951 38.4414 29.4265 38.2829C29.4479 38.2758 29.4767 38.267 29.5122 38.2562C30.2631 38.0276 33.9895 36.8929 33.5477 31.1501C33.2307 27.0289 27.9999 26.8704 25.3053 28.4554C25.3053 26.9232 26.6051 23.7002 31.8041 23.0662C31.7076 22.2941 31.6113 21.7571 31.5507 21.4193C31.5118 21.2024 31.4877 21.0676 31.4877 21.0057ZM25.1452 30.6751C26.7303 29.8826 30.0591 29.0899 30.3761 32.2602C30.6762 35.2611 28.6325 35.7474 27.84 35.7474C27.0474 35.7474 24.8277 35.2719 25.1452 30.6751Z" fill="white"/>
<path fill-rule="evenodd" clip-rule="evenodd" d="M48.7692 21.0044C45.4934 20.8987 38.9734 22.6529 39.1002 30.5149C39.2587 40.3424 46.2325 38.4402 46.708 38.2817C46.7294 38.2745 46.7582 38.2658 46.7937 38.255C47.5446 38.0263 51.271 36.8916 50.8292 31.1488C50.5122 27.0276 45.2814 26.8691 42.5868 28.4542C42.5868 26.922 43.8866 23.699 49.0856 23.0649C48.9891 22.2928 48.8928 21.7558 48.8322 21.4181C48.7933 21.2011 48.7692 21.0664 48.7692 21.0044ZM42.428 30.6751C44.0131 29.8826 47.3419 29.0899 47.6589 32.2603C47.959 35.2611 45.9153 35.7474 45.1228 35.7474C44.3302 35.7474 42.1105 35.2719 42.428 30.6751Z" fill="white"/>
<path d="M10.3193 38.7515L10 36.578C14.6304 36.2672 17.3448 35.4914 17.3448 33.0071C17.3448 31.0196 14.4708 30.8337 12.7144 30.8337V28.6601C14.6304 28.6601 16.7061 28.5359 16.7061 26.176C16.7061 23.8161 12.7676 24.3647 10.7983 24.9339V22.7604C13.1934 21.3631 20.0592 21.6735 20.0592 25.2445C20.0592 28.3497 18.0367 29.3328 17.0255 29.4362C20.2189 29.747 20.8575 31.7654 20.8575 33.0071C20.8575 37.9753 13.8321 38.9068 10.3193 38.7515Z" fill="white"/>
</g>
</svg>
