<svg width="69" height="52" viewBox="0 0 69 52" fill="none" xmlns="http://www.w3.org/2000/svg">
<g opacity="0.5">
<path d="M5.34187 43.936H2.04712L7.11862 34.138H10.7584L15.6056 43.936H11.9486L11.2069 42.1765H6.11812L5.34187 43.936ZM10.3271 40.0375L8.75737 36.4667L7.10137 40.0375H10.3271Z" fill="white"/>
<path d="M16.353 34.1377H19.5098V43.9357H16.353V34.1377Z" fill="white"/>
<path d="M21.114 34.1377H24.2708V36.1387H21.114V34.1377ZM21.114 37.1047H24.2708V43.9357H21.114V37.1047Z" fill="white"/>
<path d="M25.9942 34.1301H29.151V38.0804C29.5305 37.7009 29.9445 37.4076 30.4102 37.2179C30.876 37.0281 31.3762 36.9246 31.9282 36.9246C32.9977 36.9246 33.8602 37.2696 34.5157 37.9596C35.1712 38.6496 35.499 39.5639 35.499 40.6851C35.499 41.7201 35.1712 42.5481 34.533 43.1691C33.8947 43.7901 33.0322 44.1006 31.9627 44.1006C31.3762 44.1006 30.8415 43.9971 30.3585 43.7729C29.8755 43.5659 29.4787 43.2381 29.1337 42.8241C29.1337 43.0484 29.1337 43.2554 29.0992 43.4451C29.082 43.6349 29.0475 43.7901 29.013 43.9281H25.8562C25.8907 43.8074 25.9252 43.6349 25.9425 43.4451C25.9597 43.2554 25.977 43.0311 25.977 42.7896V34.1301M32.325 40.5471C32.325 39.9434 32.187 39.4776 31.8937 39.1154C31.6177 38.7704 31.221 38.5979 30.738 38.5979C30.2205 38.5979 29.8237 38.7704 29.5305 39.0981C29.2545 39.4259 29.1165 39.9261 29.1165 40.5644C29.1165 41.1681 29.2545 41.6339 29.5305 41.9616C29.8065 42.2894 30.2032 42.4619 30.7035 42.4619C31.2037 42.4619 31.5832 42.2894 31.8765 41.9444C32.1697 41.5994 32.325 41.1336 32.325 40.5471Z" fill="white"/>
<path d="M42.7094 42.8378C42.4161 43.2345 42.0194 43.5278 41.5364 43.7175C41.0534 43.9073 40.4841 44.0108 39.7941 44.0108C38.8281 44.0108 38.0691 43.8383 37.5516 43.4933C37.0341 43.1483 36.7754 42.6653 36.7754 42.027C36.7754 41.1645 37.2239 40.5435 38.1209 40.164C39.0179 39.7845 40.5359 39.5775 42.6576 39.5603C42.6576 39.543 42.6576 39.5258 42.6576 39.4913C42.6576 39.4568 42.6576 39.4223 42.6576 39.405C42.6576 39.06 42.5541 38.8013 42.3471 38.6288C42.1401 38.4563 41.8296 38.37 41.3984 38.37C41.0189 38.37 40.7256 38.439 40.5186 38.5598C40.3116 38.6805 40.1909 38.8703 40.1564 39.129H37.2411C37.2584 38.37 37.6206 37.8008 38.3106 37.4385C39.0179 37.0763 40.0874 36.8865 41.5364 36.8865C42.9164 36.8865 43.9514 37.0935 44.6414 37.542C45.3141 37.9733 45.6591 38.6288 45.6591 39.5085V42.993C45.6591 43.2 45.6764 43.3898 45.6936 43.5105C45.7109 43.6485 45.7454 43.7693 45.7971 43.8728H42.8646C42.8129 43.7175 42.7611 43.545 42.7439 43.3725C42.7266 43.2 42.7094 43.0275 42.7094 42.8378ZM42.6404 40.8885C41.6226 40.8885 40.9154 40.9575 40.5531 41.0955C40.1909 41.2335 40.0011 41.4578 40.0011 41.7855C40.0011 42.0098 40.0874 42.1823 40.2771 42.3203C40.4496 42.441 40.7084 42.51 41.0361 42.51C41.5709 42.51 41.9676 42.3893 42.2436 42.1305C42.5196 41.889 42.6404 41.5095 42.6404 40.992V40.8885Z" fill="white"/>
<path d="M47.1038 34.1301H50.2606V38.0804C50.6401 37.7009 51.0541 37.4076 51.5198 37.2179C51.9856 37.0281 52.4858 36.9246 53.0378 36.9246C54.1073 36.9246 54.9698 37.2696 55.6253 37.9596C56.2808 38.6496 56.6086 39.5639 56.6086 40.6851C56.6086 41.7201 56.2808 42.5481 55.6426 43.1691C55.0043 43.7901 54.1418 44.1006 53.0723 44.1006C52.4858 44.1006 51.9511 43.9971 51.4681 43.7729C50.9851 43.5659 50.5883 43.2381 50.2433 42.8241C50.2433 43.0484 50.2261 43.2554 50.2088 43.4451C50.1916 43.6349 50.1571 43.7901 50.1226 43.9281H46.9658C47.0003 43.8074 47.0348 43.6349 47.0521 43.4451C47.0693 43.2554 47.0866 43.0311 47.0866 42.7896V34.1301M53.4346 40.5471C53.4346 39.9434 53.2966 39.4776 53.0033 39.1154C52.7273 38.7704 52.3306 38.5979 51.8476 38.5979C51.3301 38.5979 50.9333 38.7704 50.6573 39.0981C50.3813 39.4259 50.2433 39.9261 50.2433 40.5644C50.2433 41.1681 50.3813 41.6339 50.6573 41.9616C50.9333 42.2894 51.3301 42.4619 51.8303 42.4619C52.3133 42.4619 52.7101 42.2894 53.0033 41.9444C53.2966 41.5994 53.4346 41.1336 53.4346 40.5471Z" fill="white"/>
<path d="M63.8193 42.8378C63.526 43.2345 63.1293 43.5278 62.6463 43.7175C62.1633 43.9073 61.594 44.0108 60.904 44.0108C59.938 44.0108 59.179 43.8383 58.6615 43.4933C58.144 43.1483 57.8853 42.6653 57.8853 42.027C57.8853 41.1645 58.3338 40.5435 59.2308 40.164C60.1278 39.7845 61.6458 39.5775 63.7675 39.5603C63.7675 39.543 63.7675 39.5258 63.7675 39.4913C63.7675 39.4568 63.7675 39.4223 63.7675 39.405C63.7675 39.06 63.664 38.8013 63.457 38.6288C63.25 38.4563 62.9395 38.37 62.5083 38.37C62.1288 38.37 61.8355 38.439 61.6285 38.5598C61.4215 38.6805 61.3008 38.8703 61.2663 39.129H58.351C58.3683 38.37 58.7305 37.8008 59.4205 37.4385C60.1278 37.0763 61.1973 36.8865 62.6463 36.8865C64.0263 36.8865 65.0613 37.0935 65.7513 37.542C66.424 37.9733 66.769 38.6288 66.769 39.5085V42.993C66.769 43.2 66.7863 43.3898 66.8035 43.5105C66.8208 43.6485 66.8553 43.7693 66.907 43.8728H63.9745C63.9228 43.7175 63.871 43.545 63.8538 43.3725C63.8365 43.2 63.8193 43.0275 63.8193 42.8378ZM63.7503 40.8885C62.7325 40.8885 62.0425 40.9575 61.663 41.0955C61.3008 41.2335 61.111 41.4578 61.111 41.7855C61.111 42.0098 61.1973 42.1823 61.387 42.3203C61.5595 42.441 61.8183 42.51 62.146 42.51C62.6808 42.51 63.0775 42.3893 63.3535 42.1305C63.6295 41.889 63.7503 41.5095 63.7503 40.992V40.8885Z" fill="white"/>
<path d="M20.7877 26.584C20.6152 26.5667 20.3392 26.4115 20.1494 26.2562C18.3037 24.445 20.6669 22.3577 23.4269 21.1502V17.7002C24.0652 18.1142 24.4274 18.1315 24.4447 18.1832L26.5492 16.096L25.8419 14.302C32.0002 12.1802 34.4669 11.3695 39.4694 10.5242L38.5724 9.67898L40.0387 8.85098C43.4024 9.95498 46.5764 10.2482 46.0244 13.0772C46.1624 11.1625 43.7819 10.438 40.1594 9.42023L39.4522 9.85148L40.7977 10.9555C34.8119 11.9905 31.1204 13.1635 26.7389 14.6815L27.3427 16.234L25.1347 18.4247C25.4969 18.5282 29.3437 19.8047 33.3284 17.0275C33.3284 17.0275 33.4147 16.9757 33.4147 16.9412C33.2939 16.7515 33.0179 16.5272 32.6902 16.234C33.8632 16.3202 34.6222 17.338 34.4842 18.4075H33.9322C33.9667 18.0625 33.8977 17.683 33.7769 17.4415C30.6892 19.7012 27.1012 20.029 24.0479 18.9595V21.6332C22.5644 22.1507 19.9252 23.7895 19.9424 25.3765C20.0459 26.1182 20.4254 26.3942 20.7877 26.584Z" fill="white"/>
<path d="M33.4168 25.7002C30.1048 27.3735 26.9308 28.719 22.049 28.9087C15.6838 28.7707 14.7005 24.5445 17.702 20.1285C20.5483 15.678 25.0678 11.6415 32.2438 9.12295C34.331 8.3812 37.3843 7.5532 40.334 7.50145C44.5775 7.46695 48.7003 8.77795 48.4243 12.849C48.269 15.9712 43.7668 20.3527 41.4035 23.5095C40.3858 24.8895 40.2133 25.7865 41.9555 25.7002C48.2518 25.2862 53.9443 23.1127 59.24 20.853C55.652 23.2852 37.1428 32.445 37.0738 26.2005C37.091 25.407 37.4533 24.5617 38.057 23.6647C38.6435 22.7677 39.4543 21.8362 40.2995 20.8875C41.5588 19.4557 44.6983 16.0057 45.7505 13.9357C47.5273 10.0717 43.5598 9.88195 40.127 8.67445L38.6608 9.50245L39.5578 10.3477C34.5553 11.1757 32.0885 12.0037 25.9303 14.1255L26.6375 15.9195L24.5503 17.9895C24.4985 17.9377 24.188 17.9205 23.5325 17.5065V20.9565C20.7898 22.164 18.4093 24.2512 20.255 26.0625C20.4448 26.2177 20.7208 26.373 20.8933 26.3902C24.2743 28.2877 33.434 25.7002 33.4168 25.7002Z" fill="white"/>
<path d="M53.2093 27.9416H53.6405C53.7268 27.9416 53.7958 27.9243 53.8475 27.9071C53.8993 27.8898 53.9338 27.8553 53.9683 27.8208C54.0028 27.7691 54.0028 27.7346 54.0028 27.6828C54.0028 27.6138 53.9683 27.5448 53.9165 27.5103C53.8648 27.4586 53.7785 27.4413 53.675 27.4413H53.2093V27.9416ZM53.0195 28.8041V27.2688H53.7095C53.8475 27.2688 53.951 27.2861 54.02 27.3033C54.089 27.3378 54.1408 27.3723 54.1925 27.4586C54.2443 27.5276 54.2615 27.5966 54.2615 27.6828C54.2615 27.7863 54.227 27.8898 54.158 27.9588C54.089 28.0278 53.9855 28.0796 53.8303 28.0968C53.882 28.1141 53.9338 28.1486 53.951 28.1658C54.0028 28.2176 54.0718 28.2866 54.1235 28.3728L54.3995 28.7868H54.1408L53.9338 28.4763C53.882 28.3728 53.8303 28.3038 53.7785 28.2521C53.744 28.2003 53.7095 28.1658 53.675 28.1486C53.6405 28.1313 53.6233 28.1141 53.5888 28.1141C53.5715 28.1141 53.537 28.1141 53.468 28.1141H53.2093V28.8041H53.0195Z" fill="white"/>
<path d="M53.6328 29.515C54.4435 29.515 55.099 28.8595 55.099 28.0487C55.099 27.238 54.4435 26.5825 53.6328 26.5825C52.822 26.5825 52.1665 27.238 52.1665 28.0487C52.1665 28.8595 52.822 29.515 53.6328 29.515ZM52.3908 28.0487C52.3908 27.3587 52.9428 26.8067 53.6328 26.8067C54.3228 26.8067 54.8748 27.3587 54.8748 28.0487C54.8748 28.7215 54.3228 29.2907 53.6328 29.2907C52.9428 29.2907 52.3908 28.7387 52.3908 28.0487Z" fill="white"/>
</g>
</svg>
