<svg width="60" height="60" viewBox="0 0 60 60" fill="none" xmlns="http://www.w3.org/2000/svg">
<g opacity="0.5">
<rect width="60" height="60" rx="11.1047" fill="#6A6A6A"/>
<path d="M22.4889 23.2821H23.2821V22.4889V13.1153C23.2821 11.2805 24.7695 9.79319 26.6042 9.79319H33.463C35.2977 9.79319 36.7851 11.2805 36.7851 13.1153V22.4889V23.2821H37.5783H46.9519C48.7867 23.2821 50.274 24.7695 50.274 26.6042V33.463C50.274 35.2977 48.7867 36.7851 46.9519 36.7851H37.5783H36.7851V37.5783V46.9519C36.7851 48.7867 35.2977 50.274 33.463 50.274H26.6042C24.7695 50.274 23.2821 48.7867 23.2821 46.9519V37.5783V36.7851H22.4889H13.1153C11.2805 36.7851 9.79319 35.2977 9.79319 33.463V26.6042C9.79319 24.7695 11.2805 23.2821 13.1153 23.2821H22.4889Z" stroke="white" stroke-width="1.58638"/>
<path d="M18.0684 27.8716H15.7329V32.4899H16.5114V28.4852H18.0684V27.8716Z" fill="white"/>
<path d="M21.5131 31.3023V29.0592C21.5131 28.3202 20.8599 27.8122 19.9561 27.8122C19.0522 27.8122 18.4056 28.3202 18.4056 29.0592V31.3023C18.4056 32.0413 19.0522 32.5493 19.9561 32.5493C20.8599 32.5493 21.5131 32.0413 21.5131 31.3023ZM20.7346 31.3419C20.7346 31.6982 20.3981 31.9357 19.9561 31.9357C19.5008 31.9357 19.1776 31.7048 19.1776 31.3485V29.013C19.1776 28.6633 19.5008 28.4258 19.9561 28.4258C20.3981 28.4258 20.7346 28.6633 20.7346 29.013V31.3419Z" fill="white"/>
<path d="M23.7433 30.6558C24.6471 30.6558 25.2805 30.1478 25.2805 29.4088V29.1185C25.2805 28.3796 24.6471 27.8716 23.7433 27.8716H22.2918V32.4899H23.0703V30.6558H23.7433ZM23.7301 28.4852C24.1853 28.4852 24.502 28.7227 24.502 29.0724V29.455C24.502 29.8113 24.1853 30.0488 23.7301 30.0488H23.0703V28.4852H23.7301Z" fill="white"/>
<path d="M27.3571 27.8122C26.4533 27.8122 25.8067 28.3202 25.8067 29.0592V29.3099H26.5786V29.013C26.5786 28.6633 26.9151 28.4258 27.3505 28.4258C27.753 28.4258 28.0499 28.6435 28.0499 28.9734V29.2703C28.0499 29.6068 27.72 29.8311 27.278 29.8311H26.9151V30.4447H27.4165C27.8586 30.4447 28.1884 30.6756 28.1884 31.0252V31.3617C28.1884 31.7114 27.8322 31.9357 27.3703 31.9357C26.9019 31.9357 26.5786 31.7048 26.5786 31.3419V31.0516H25.8067V31.3023C25.8067 32.0413 26.4467 32.5493 27.3703 32.5493C28.2874 32.5493 28.967 32.0677 28.967 31.3683V31.0846C28.967 30.636 28.6503 30.2929 28.1555 30.1082C28.5645 29.93 28.8284 29.6266 28.8284 29.2241V28.9536C28.8284 28.2741 28.2148 27.8122 27.3571 27.8122Z" fill="white"/>
<path d="M29.2303 33.4268H30.0089V32.4899H32.7996V33.4268H33.5781V31.8763H32.925V27.8716H30.1474V28.6567C30.1474 30.8603 29.9693 31.5464 29.7647 31.8763H29.2303V33.4268ZM30.8731 28.6633V28.4852H32.1465V31.8763H30.5367C30.794 31.4013 30.8731 30.4776 30.8731 28.6633Z" fill="white"/>
<path d="M35.5661 30.6558C36.4699 30.6558 37.1033 30.1478 37.1033 29.4088V29.1185C37.1033 28.3796 36.4699 27.8716 35.5661 27.8716H34.1146V32.4899H34.8931V30.6558H35.5661ZM35.5529 28.4852C36.0081 28.4852 36.3248 28.7227 36.3248 29.0724V29.455C36.3248 29.8113 36.0081 30.0488 35.5529 30.0488H34.8931V28.4852H35.5529Z" fill="white"/>
<path d="M37.823 32.4899L38.0738 31.619H39.7297L39.987 32.4899H40.792L39.3075 27.8716H38.5026L37.0181 32.4899H37.823ZM38.8985 28.7887L39.5516 31.012H38.2519L38.8985 28.7887Z" fill="white"/>
<path d="M41.2598 32.4899H42.7904C43.7273 32.4899 44.3343 32.0083 44.3343 31.3419V31.111C44.3343 30.669 44.0572 30.2995 43.5888 30.1082C43.9714 29.9168 44.1957 29.5936 44.1957 29.2043V28.9734C44.1957 28.3334 43.5888 27.8716 42.6585 27.8716H41.2598V32.4899ZM42.7707 30.4447C43.2655 30.4447 43.5558 30.702 43.5558 31.0516V31.3353C43.5558 31.652 43.2655 31.8763 42.7707 31.8763H42.0383V30.4447H42.7707ZM42.6321 28.4852C43.1335 28.4852 43.4172 28.7029 43.4172 28.9998V29.2505C43.4172 29.587 43.1335 29.8311 42.6321 29.8311H42.0383V28.4852H42.6321Z" fill="white"/>
</g>
</svg>
