<svg width="137" height="27" viewBox="0 0 137 27" fill="none" xmlns="http://www.w3.org/2000/svg">
<g opacity="0.5" clip-path="url(#clip0_59_791)">
<path d="M13.7442 0.0549427C13.34 0.0219941 12.9322 3.05176e-05 12.5206 3.05176e-05C12.1089 3.05176e-05 11.6973 0.0219941 11.2932 0.0549427V2.61763C11.2932 13.6006 10.8853 18.4184 9.24634 25.9417C11.3854 26.5104 13.6407 26.5104 15.7798 25.9417C14.152 18.4733 13.7442 13.6372 13.7442 2.61397V0.0549427Z" fill="white"/>
<path d="M25.0224 14.1131C25.0194 12.054 24.4852 10.0289 23.4693 8.22548C22.4535 6.42212 20.9889 4.89869 19.2111 3.79644L19.2561 6.74354C20.8126 8.09658 21.9028 9.88782 22.3772 11.8714C22.8516 13.8549 22.6868 15.9334 21.9054 17.8216C18.4928 14.5268 17.8529 10.3643 17.7294 5.74041L17.7031 2.99835C16.9135 2.64724 16.0882 2.3785 15.241 2.19659V4.39318C15.2971 12.7402 16.1839 19.0371 20.1055 23.8183C22.5964 21.9449 24.2745 19.2222 24.8054 16.1925C24.8428 15.9692 24.9064 15.4823 24.9064 15.4603C24.959 15.0167 24.9852 14.5706 24.985 14.124L25.0224 14.1131Z" fill="white"/>
<path d="M9.76272 4.39318V2.19659C8.92174 2.38091 8.10273 2.65085 7.31924 3.00202L7.29303 5.7441C7.16955 10.3679 6.54463 14.5304 3.11702 17.8253C2.33565 15.9371 2.17086 13.8585 2.64521 11.875C3.11957 9.89147 4.20984 8.10023 5.76633 6.74719L5.81127 3.8001C4.03353 4.90238 2.56889 6.42576 1.55306 8.22917C0.537221 10.0325 0.00305321 12.0576 1.83174e-06 14.1167C-0.000252463 14.5633 0.0259706 15.0094 0.078568 15.453C0.078568 15.4749 0.142188 15.9619 0.179608 16.1852C0.71051 19.2148 2.3886 21.9376 4.87949 23.811C8.81976 19.0371 9.7066 12.7366 9.76272 4.39318Z" fill="white"/>
<path d="M57.6708 9.24396C55.8748 9.24396 54.5237 9.91762 53.8612 11.0415H53.7154V9.57712H50.415V24.9862H53.7044V20.1134H53.8502C54.5127 21.2374 55.8633 21.911 57.6593 21.911C61.027 21.911 63.7137 19.103 63.7137 15.5775C63.7137 12.052 61.0495 9.24396 57.6708 9.24396ZM57.0082 18.865C56.3404 18.8738 55.6849 18.6879 55.1255 18.3312C54.5656 17.9745 54.1268 17.463 53.8651 16.8618C53.6035 16.2605 53.5304 15.5967 53.655 14.9547C53.7797 14.3127 54.0969 13.7215 54.566 13.2563C55.0352 12.7911 55.6351 12.4729 56.2897 12.3422C56.9443 12.2114 57.6236 12.2741 58.2417 12.5221C58.8597 12.7701 59.3883 13.1924 59.7606 13.7351C60.1323 14.2779 60.331 14.9166 60.331 15.5701C60.3398 16.0014 60.2601 16.43 60.0967 16.8306C59.9332 17.2312 59.6892 17.5958 59.3795 17.9029C59.0698 18.2099 58.7007 18.4532 58.2936 18.6185C57.8862 18.7837 57.4492 18.8676 57.0082 18.865Z" fill="white"/>
<path d="M131.241 10.1519C129.37 10.1519 127.873 10.8841 126.994 12.1362H126.844C127.091 9.85537 128.341 8.74975 131.084 8.35436L135.863 7.65147V4.56894L130.77 5.30114C126.062 5.97107 123.806 8.50448 123.806 13.0733C123.806 16.3682 124.015 17.4226 124.592 18.671C125.505 20.6772 127.761 21.9073 130.489 21.9073C134.163 21.9073 137 19.2531 137 15.7788C137.011 12.4474 134.665 10.1519 131.241 10.1519ZM130.455 18.8468C128.584 18.8468 127.2 17.5471 127.2 15.7825C127.2 14.0179 128.565 12.7 130.455 12.7C130.877 12.6857 131.297 12.7547 131.691 12.9027C132.085 13.0508 132.444 13.2748 132.748 13.5616C133.051 13.8484 133.292 14.1921 133.457 14.572C133.622 14.952 133.707 15.3606 133.707 15.7733C133.707 16.1861 133.622 16.5946 133.457 16.9747C133.292 17.3546 133.051 17.6982 132.748 17.985C132.444 18.2718 132.085 18.4959 131.691 18.644C131.297 18.792 130.877 18.861 130.455 18.8468Z" fill="white"/>
<path d="M46.9801 5.97467L43.2756 13.5749L38.2314 5.97467H34.2949L41.6179 16.9759L41.4158 17.3932C41.1015 18.0596 40.6674 18.4184 39.717 18.4184H37.1276V21.5997H40.0837C42.3288 21.5997 43.2531 21.0176 44.2 19.1029L50.6773 5.9893L46.9801 5.97467Z" fill="white"/>
<path d="M82.7305 9.60275L82.1692 17.0492C82.0833 18.2134 81.6979 18.6417 80.7887 18.6417H79.9768V21.673H81.9336C84.1414 21.673 85.1181 20.6443 85.2788 18.5062L85.7092 12.7182H89.758V21.5705H93.0733V9.60275H82.7305Z" fill="white"/>
<path d="M101.68 12.3228C102.291 12.3208 102.89 12.4887 103.407 12.807C103.925 13.1252 104.339 13.5807 104.602 14.1204L107.54 12.9928C106.716 10.7157 104.389 9.24396 101.609 9.24396C99.8919 9.24396 98.2453 9.91125 97.0312 11.099C95.8172 12.2868 95.1353 13.8977 95.1353 15.5775C95.1353 17.2572 95.8172 18.8682 97.0312 20.0559C98.2453 21.2437 99.8919 21.911 101.609 21.911C104.389 21.911 106.716 20.4466 107.54 18.1621L104.602 17.0309C104.34 17.5716 103.926 18.028 103.409 18.347C102.891 18.666 102.291 18.8342 101.68 18.8321C99.8087 18.8321 98.4581 17.4775 98.4581 15.5775C98.4581 13.6774 99.8087 12.3228 101.68 12.3228Z" fill="white"/>
<path d="M117.92 9.5845L112.808 17.192V9.5845H109.519V21.5706H113.16L118.234 14.0143V21.5706H121.524V9.5845H117.92Z" fill="white"/>
<path d="M75.0298 11.0415H74.8875C74.2215 9.91762 72.8744 9.24396 71.0744 9.24396C67.7067 9.24396 65.02 12.052 65.02 15.5775C65.02 19.103 67.6992 21.911 71.0744 21.911C72.8744 21.911 74.2215 21.2374 74.8875 20.1134H75.0298V21.5778H78.3187V9.58446H75.0298V11.0415ZM71.7445 18.865C71.0753 18.8803 70.4163 18.7001 69.8525 18.3475C69.2882 17.9949 68.8446 17.4858 68.5776 16.8852C68.3107 16.2847 68.2327 15.6199 68.3534 14.9758C68.4745 14.3317 68.7886 13.7374 69.2564 13.2689C69.7243 12.8004 70.3238 12.4788 70.9793 12.3453C71.6348 12.2118 72.3158 12.2725 72.9356 12.5194C73.5559 12.7664 74.0862 13.1885 74.4598 13.7319C74.8338 14.2752 75.0333 14.9152 75.0333 15.5701C75.043 15.9989 74.9651 16.4252 74.8038 16.8241C74.6431 17.223 74.4025 17.5865 74.0959 17.8933C73.7898 18.2001 73.4242 18.444 73.0202 18.6109C72.6162 18.7778 72.1828 18.8641 71.7445 18.865Z" fill="white"/>
</g>
<defs>
<clipPath id="clip0_59_791">
<rect width="137" height="26.3682" fill="white"/>
</clipPath>
</defs>
</svg>
