<svg width="144" height="26" viewBox="0 0 144 26" fill="none" xmlns="http://www.w3.org/2000/svg">
<g opacity="0.5" clip-path="url(#clip0_59_824)">
<path d="M39.7105 10.0118C39.4729 9.57608 39.1291 9.24621 38.6789 9.02214C38.2413 8.78564 37.7224 8.66739 37.1222 8.66739C36.0844 8.66739 35.2529 9.0097 34.6277 9.69433C34.0026 10.3665 33.69 11.269 33.69 12.4018C33.69 13.6093 34.0151 14.5554 34.6653 15.24C35.328 15.9122 36.2345 16.2484 37.3848 16.2484C38.1726 16.2484 38.8353 16.0492 39.3729 15.6508C39.9231 15.2525 40.3232 14.6799 40.5733 13.933H36.5033V11.5803H43.4804V14.5492C43.2428 15.3459 42.8364 16.0865 42.2613 16.7712C41.6986 17.4559 40.9796 18.0098 40.1044 18.433C39.2291 18.8562 38.2413 19.0679 37.141 19.0679C35.8406 19.0679 34.6778 18.7879 33.6525 18.2277C32.6396 17.655 31.8457 16.8646 31.2705 15.8563C30.7078 14.848 30.4265 13.6964 30.4265 12.4018C30.4265 11.1072 30.7078 9.95572 31.2705 8.94741C31.8457 7.92665 32.6396 7.13621 33.6525 6.57604C34.6653 6.00342 35.8219 5.7171 37.1222 5.7171C38.6977 5.7171 40.0231 6.09678 41.0984 6.85613C42.1862 7.61547 42.9052 8.66739 43.2553 10.0118H39.7105Z" fill="white"/>
<path d="M50.6967 8.42462V11.0761H54.9917V13.5408H50.6967V16.4164H55.5543V18.9745H47.4895V5.86649H55.5543V8.42462H50.6967Z" fill="white"/>
<path d="M69.341 5.86649V8.42462H65.8524V18.9745H62.6453V8.42462H59.1567V5.86649H69.341Z" fill="white"/>
<path d="M81.1548 12.2524C81.9174 12.4143 82.5297 12.7939 82.9925 13.3914C83.4553 13.9765 83.6867 14.6488 83.6867 15.4081C83.6867 16.5036 83.2986 17.3749 82.5233 18.0222C81.7608 18.6571 80.692 18.9745 79.3164 18.9745H73.1833V5.86649H79.1101C80.4479 5.86649 81.492 6.17147 82.2426 6.78143C83.0052 7.3914 83.3861 8.21919 83.3861 9.26483C83.3861 10.0366 83.1801 10.6778 82.7674 11.1881C82.3675 11.6985 81.8299 12.0533 81.1548 12.2524ZM76.3905 11.1695H78.4912C79.0164 11.1695 79.4164 11.0574 79.6917 10.8333C79.9788 10.5968 80.1227 10.2545 80.1227 9.8064C80.1227 9.3582 79.9788 9.01588 79.6917 8.77938C79.4164 8.54287 79.0164 8.42462 78.4912 8.42462H76.3905V11.1695ZM78.7537 16.3978C79.2914 16.3978 79.7036 16.2795 79.9915 16.0429C80.2921 15.794 80.4416 15.4392 80.4416 14.9787C80.4416 14.518 80.2857 14.1571 79.9732 13.8956C79.6726 13.6342 79.2539 13.5035 78.7163 13.5035H76.3905V16.3978H78.7537Z" fill="white"/>
<path d="M90.9865 16.5098H95.1882V18.9745H87.7795V5.86649H90.9865V16.5098Z" fill="white"/>
<path d="M105.177 19.1053C103.94 19.1053 102.802 18.8189 101.763 18.2463C100.738 17.6737 99.9195 16.877 99.3072 15.8563C98.7068 14.823 98.4062 13.6654 98.4062 12.3832C98.4062 11.101 98.7068 9.94955 99.3072 8.9288C99.9195 7.90804 100.738 7.11133 101.763 6.53871C102.802 5.96609 103.94 5.67978 105.177 5.67978C106.415 5.67978 107.547 5.96609 108.572 6.53871C109.61 7.11133 110.423 7.90804 111.011 8.9288C111.61 9.94955 111.911 11.101 111.911 12.3832C111.911 13.6654 111.61 14.823 111.011 15.8563C110.41 16.877 109.598 17.6737 108.572 18.2463C107.547 18.8189 106.415 19.1053 105.177 19.1053ZM105.177 16.1923C106.228 16.1923 107.066 15.8438 107.691 15.1467C108.328 14.4496 108.647 13.5284 108.647 12.3832C108.647 11.2255 108.328 10.3043 107.691 9.61968C107.066 8.92253 106.228 8.57404 105.177 8.57404C104.115 8.57404 103.264 8.91635 102.626 9.60098C102.001 10.2857 101.689 11.2131 101.689 12.3832C101.689 13.5409 102.001 14.4683 102.626 15.1654C103.264 15.85 104.115 16.1923 105.177 16.1923Z" fill="white"/>
<path d="M115.384 12.4018C115.384 11.1072 115.665 9.95572 116.228 8.94741C116.791 7.92665 117.572 7.13621 118.572 6.57604C119.585 6.00342 120.729 5.7171 122.005 5.7171C123.567 5.7171 124.905 6.1279 126.018 6.94948C127.131 7.77107 127.875 8.89145 128.25 10.3106H124.724C124.462 9.76281 124.086 9.34575 123.599 9.05948C123.123 8.7732 122.58 8.62998 121.967 8.62998C120.979 8.62998 120.179 8.97237 119.567 9.657C118.954 10.3416 118.647 11.2566 118.647 12.4018C118.647 13.5471 118.954 14.4621 119.567 15.1467C120.179 15.8313 120.979 16.1737 121.967 16.1737C122.58 16.1737 123.123 16.0305 123.599 15.7442C124.086 15.4579 124.462 15.0409 124.724 14.4931H128.25C127.875 15.9122 127.131 17.0326 126.018 17.8542C124.905 18.6633 123.567 19.0679 122.005 19.0679C120.729 19.0679 119.585 18.7879 118.572 18.2277C117.572 17.655 116.791 16.8646 116.228 15.8563C115.665 14.848 115.384 13.6964 115.384 12.4018Z" fill="white"/>
<path d="M140.08 18.9745L135.654 13.1861V18.9745H132.447V5.86649H135.654V11.6176L140.043 5.86649H143.813L138.711 12.2898L144 18.9745H140.08Z" fill="white"/>
<path d="M11.0164 12.3925V25.0435L0 18.8471V6.19617L11.0164 12.3925Z" fill="white"/>
<path opacity="0.25" d="M11.0166 12.3925L22.033 6.19617V18.8471L11.0166 25.0435V12.3925Z" fill="white"/>
<path opacity="0.5" d="M11.0164 0L22.0328 6.19637L11.0164 12.3928L0 6.19637L11.0164 0Z" fill="white"/>
</g>
<defs>
<clipPath id="clip0_59_824">
<rect width="144" height="25.0435" fill="white"/>
</clipPath>
</defs>
</svg>
