<svg width="32" height="32" viewBox="0 0 32 32" fill="none" xmlns="http://www.w3.org/2000/svg">
<path d="M16.0001 2.66666C19.6228 2.66666 20.0748 2.68 21.4961 2.74666C22.9161 2.81333 23.8828 3.036 24.7334 3.36666C25.6134 3.70533 26.3548 4.164 27.0961 4.904C27.7741 5.57053 28.2987 6.37678 28.6334 7.26666C28.9628 8.116 29.1868 9.084 29.2534 10.504C29.3161 11.9253 29.3334 12.3773 29.3334 16C29.3334 19.6227 29.3201 20.0747 29.2534 21.496C29.1868 22.916 28.9628 23.8827 28.6334 24.7333C28.2997 25.6237 27.7749 26.4302 27.0961 27.096C26.4294 27.7738 25.6232 28.2983 24.7334 28.6333C23.8841 28.9627 22.9161 29.1867 21.4961 29.2533C20.0748 29.316 19.6228 29.3333 16.0001 29.3333C12.3774 29.3333 11.9254 29.32 10.5041 29.2533C9.08408 29.1867 8.11742 28.9627 7.26675 28.6333C6.37652 28.2993 5.57012 27.7746 4.90408 27.096C4.22596 26.4296 3.70132 25.6233 3.36675 24.7333C3.03608 23.884 2.81341 22.916 2.74675 21.496C2.68408 20.0747 2.66675 19.6227 2.66675 16C2.66675 12.3773 2.68008 11.9253 2.74675 10.504C2.81341 9.08266 3.03608 8.11733 3.36675 7.26666C3.7004 6.37624 4.22515 5.56976 4.90408 4.904C5.57031 4.22564 6.37665 3.70097 7.26675 3.36666C8.11742 3.036 9.08275 2.81333 10.5041 2.74666C11.9254 2.684 12.3774 2.66666 16.0001 2.66666ZM16.0001 9.33333C14.232 9.33333 12.5363 10.0357 11.286 11.286C10.0358 12.5362 9.33342 14.2319 9.33342 16C9.33342 17.7681 10.0358 19.4638 11.286 20.714C12.5363 21.9643 14.232 22.6667 16.0001 22.6667C17.7682 22.6667 19.4639 21.9643 20.7141 20.714C21.9644 19.4638 22.6668 17.7681 22.6668 16C22.6668 14.2319 21.9644 12.5362 20.7141 11.286C19.4639 10.0357 17.7682 9.33333 16.0001 9.33333ZM24.6668 9C24.6668 8.55797 24.4912 8.13405 24.1786 7.82149C23.866 7.50893 23.4421 7.33333 23.0001 7.33333C22.5581 7.33333 22.1341 7.50893 21.8216 7.82149C21.509 8.13405 21.3334 8.55797 21.3334 9C21.3334 9.44203 21.509 9.86595 21.8216 10.1785C22.1341 10.4911 22.5581 10.6667 23.0001 10.6667C23.4421 10.6667 23.866 10.4911 24.1786 10.1785C24.4912 9.86595 24.6668 9.44203 24.6668 9ZM16.0001 12C17.061 12 18.0784 12.4214 18.8285 13.1716C19.5787 13.9217 20.0001 14.9391 20.0001 16C20.0001 17.0609 19.5787 18.0783 18.8285 18.8284C18.0784 19.5786 17.061 20 16.0001 20C14.9392 20 13.9218 19.5786 13.1717 18.8284C12.4215 18.0783 12.0001 17.0609 12.0001 16C12.0001 14.9391 12.4215 13.9217 13.1717 13.1716C13.9218 12.4214 14.9392 12 16.0001 12Z" fill="white"/>
</svg>
