<svg width="32" height="32" viewBox="0 0 32 32" fill="none" xmlns="http://www.w3.org/2000/svg">
<path fill-rule="evenodd" clip-rule="evenodd" d="M29.3334 16C29.3334 23.3633 23.3634 29.3333 16.0001 29.3333C8.63675 29.3333 2.66675 23.3633 2.66675 16C2.66675 8.63666 8.63675 2.66666 16.0001 2.66666C23.3634 2.66666 29.3334 8.63666 29.3334 16ZM16.4779 12.51C15.1812 13.0489 12.589 14.1656 8.7023 15.8589C8.07119 16.11 7.74008 16.3556 7.71008 16.5956C7.65897 17.0022 8.16786 17.1622 8.85897 17.3789C8.95341 17.4089 9.05119 17.4389 9.15119 17.4722C9.8323 17.6933 10.7479 17.9522 11.2234 17.9622C11.6556 17.9711 12.1379 17.7933 12.6701 17.4289C16.3012 14.9767 18.1756 13.7378 18.2934 13.7111C18.3767 13.6922 18.4923 13.6678 18.5701 13.7378C18.6479 13.8067 18.6401 13.9378 18.6323 13.9733C18.5812 14.1878 16.5879 16.0422 15.5545 17.0022C15.2323 17.3011 15.0045 17.5133 14.9579 17.5622C14.8534 17.67 14.7467 17.7733 14.6445 17.8722C14.0112 18.4811 13.5379 18.9389 14.6712 19.6856C15.2156 20.0444 15.6512 20.3411 16.0856 20.6367C16.5601 20.96 17.0334 21.2822 17.6467 21.6844C17.8023 21.7867 17.9512 21.8922 18.0967 21.9956C18.649 22.39 19.1456 22.7433 19.759 22.6878C20.1145 22.6544 20.4834 22.32 20.6701 21.3211C21.1112 18.9589 21.9801 13.8433 22.1812 11.7344C22.1934 11.5593 22.186 11.3834 22.159 11.21C22.1428 11.0699 22.0746 10.941 21.9679 10.8489C21.809 10.7189 21.5623 10.6911 21.4512 10.6933C20.9501 10.7022 20.1812 10.97 16.4779 12.51V12.51Z" fill="white"/>
</svg>
