<svg width="28" height="28" viewBox="0 0 28 28" fill="none" xmlns="http://www.w3.org/2000/svg">
<path d="M27.3334 6.73333C27.3184 6.15809 27.2739 5.58401 27.2001 5.01333C27.1005 4.5135 26.9346 4.02921 26.7067 3.57333C26.4684 3.0788 26.1484 2.62803 25.7601 2.24C25.3682 1.85627 24.9182 1.53679 24.4267 1.29333C23.9703 1.06992 23.486 0.908495 22.9867 0.813331C22.4215 0.728663 21.8515 0.679678 21.2801 0.666664H6.73342C6.15818 0.681646 5.58409 0.726149 5.01342 0.799997C4.51358 0.899555 4.02929 1.06547 3.57341 1.29333C3.07889 1.53165 2.62812 1.85169 2.24008 2.24C1.85635 2.63188 1.53687 3.08186 1.29341 3.57333C1.07001 4.02982 0.908579 4.5141 0.813415 5.01333C0.728747 5.57858 0.679762 6.14859 0.666748 6.72V21.2667C0.68173 21.8419 0.726233 22.416 0.800081 22.9867C0.899639 23.4865 1.06555 23.9708 1.29341 24.4267C1.53173 24.9212 1.85178 25.372 2.24008 25.76C2.63196 26.1437 3.08194 26.4632 3.57341 26.7067C4.0299 26.9301 4.51418 27.0915 5.01342 27.1867C5.57866 27.2713 6.14868 27.3203 6.72008 27.3333H21.2667C21.842 27.3183 22.4161 27.2738 22.9867 27.2C23.4866 27.1004 23.9709 26.9345 24.4267 26.7067C24.9213 26.4684 25.372 26.1483 25.7601 25.76C26.1438 25.3681 26.4633 24.9181 26.7067 24.4267C26.9302 23.9702 27.0916 23.4859 27.1867 22.9867C27.2714 22.4214 27.3204 21.8514 27.3334 21.28V6.73333ZM14.3067 23.3333C12.7055 23.3254 11.1323 22.9126 9.73342 22.1333L4.66675 23.4667L6.00008 18.5067C5.14023 17.0619 4.68006 15.4145 4.66675 13.7333C4.67206 11.8439 5.23635 9.99828 6.28856 8.42894C7.34077 6.8596 8.83384 5.6367 10.5797 4.91429C12.3256 4.19187 14.2462 4.00223 16.0997 4.36925C17.9531 4.73627 19.6565 5.64355 20.9953 6.9768C22.3341 8.31006 23.2485 10.0097 23.6232 11.8616C23.9979 13.7135 23.8163 15.6349 23.1011 17.3837C22.386 19.1326 21.1693 20.6308 19.6044 21.6895C18.0394 22.7482 16.1961 23.3202 14.3067 23.3333V23.3333ZM14.3067 5.82666C12.8932 5.84284 11.5091 6.23331 10.2955 6.95831C9.08188 7.68332 8.08205 8.71697 7.39781 9.95402C6.71357 11.1911 6.36935 12.5874 6.40019 14.0007C6.43104 15.414 6.83585 16.794 7.57341 18L7.76008 18.3067L6.96008 21.2267L10.0001 20.4L10.2934 20.5733C11.5062 21.2877 12.8859 21.6694 14.2934 21.68C16.4151 21.68 18.45 20.8371 19.9503 19.3369C21.4506 17.8366 22.2934 15.8017 22.2934 13.68C22.2934 11.5583 21.4506 9.52343 19.9503 8.02314C18.45 6.52285 16.4151 5.68 14.2934 5.68L14.3067 5.82666ZM18.9734 17.1867C18.7988 17.478 18.5649 17.7293 18.287 17.9246C18.0091 18.1198 17.6933 18.2545 17.3601 18.32C16.8621 18.411 16.3495 18.379 15.8667 18.2267C15.4125 18.0847 14.9673 17.9155 14.5334 17.72C12.8851 16.8929 11.4793 15.6525 10.4534 14.12C9.89593 13.41 9.55767 12.5527 9.48008 11.6533C9.47214 11.2797 9.54282 10.9086 9.68753 10.5641C9.83224 10.2195 10.0477 9.90923 10.3201 9.65333C10.4003 9.56238 10.4987 9.48928 10.609 9.43875C10.7192 9.38822 10.8388 9.36139 10.9601 9.36H11.3334C11.4801 9.36 11.6801 9.36 11.8667 9.77333C12.0534 10.1867 12.5467 11.4267 12.6134 11.5467C12.6462 11.6106 12.6633 11.6815 12.6633 11.7533C12.6633 11.8252 12.6462 11.896 12.6134 11.96C12.5545 12.1049 12.4735 12.2398 12.3734 12.36C12.2534 12.5067 12.1201 12.68 12.0134 12.7867C11.9067 12.8933 11.7734 13.0267 11.9067 13.2667C12.2695 13.8789 12.7186 14.4357 13.2401 14.92C13.808 15.4218 14.4573 15.8231 15.1601 16.1067C15.4001 16.2267 15.5467 16.2133 15.6801 16.1067C15.8134 16 16.2801 15.4133 16.4401 15.1733C16.6001 14.9333 16.7601 14.9733 16.9734 15.0533C17.1867 15.1333 18.3734 15.7067 18.6134 15.8267C18.8534 15.9467 19.0001 16 19.0667 16.1067C19.1246 16.4556 19.0925 16.8136 18.9734 17.1467V17.1867Z" fill="white"/>
</svg>
