<svg width="246" height="43" viewBox="0 0 246 43" fill="none" xmlns="http://www.w3.org/2000/svg">
<g opacity="0.5">
<path d="M20.7728 36.1377L11.4258 41.4752L11.4258 30.6093L20.7694 25.4477L20.7728 36.1377ZM10.7356 18.9389L20.0451 24.2592L10.7297 29.4053L1.41936 24.2865L10.7356 18.9389ZM0.695261 36.137V25.4752L10.0353 30.6103L10.0353 41.4747L0.695261 36.137Z" fill="white" stroke="#3D2694" stroke-width="1.39052"/>
<path d="M31.2024 18.9389L40.5119 24.2592L31.1965 29.4053L21.8862 24.2865L31.2024 18.9389ZM21.1621 36.137V25.4752L30.5021 30.6103L30.5021 41.4747L21.1621 36.137ZM41.2396 36.1377L31.8926 41.4752L31.8926 30.6093L41.2362 25.4477L41.2396 36.1377Z" fill="white" stroke="#3D2694" stroke-width="1.39052"/>
<path d="M31.0062 18.575L21.6592 23.9125L21.6592 13.0466L31.0028 7.88496L31.0062 18.575ZM20.969 1.37623L30.2785 6.69651L20.9631 11.8425L11.6528 6.72378L20.969 1.37623ZM10.9287 18.5743V7.9125L20.2687 13.0476L20.2687 23.912L10.9287 18.5743Z" fill="white" stroke="#3D2694" stroke-width="1.39052"/>
<path d="M61.7062 36.1377L52.3591 41.4752L52.3591 30.6093L61.7027 25.4477L61.7062 36.1377ZM51.6689 18.9389L60.9784 24.2592L51.6631 29.4053L42.3527 24.2865L51.6689 18.9389ZM41.6286 36.137V25.4752L50.9686 30.6103L50.9686 41.4747L41.6286 36.137Z" fill="white" stroke="#3D2694" stroke-width="1.39052"/>
<path d="M51.505 18.575L42.158 23.9125L42.158 13.0466L51.5016 7.88496L51.505 18.575ZM41.4678 1.37623L50.7772 6.69651L41.4619 11.8425L32.1515 6.72378L41.4678 1.37623ZM31.4274 18.5743V7.9125L40.7674 13.0476L40.7674 23.912L31.4274 18.5743Z" fill="white" stroke="#3D2694" stroke-width="1.39052"/>
</g>
<g opacity="0.5">
<path d="M74.4016 29.8679V13.0679H80.5216C81.4096 13.0679 82.2096 13.2519 82.9216 13.6199C83.6416 13.9799 84.2096 14.4999 84.6256 15.1799C85.0496 15.8519 85.2616 16.6479 85.2616 17.5679C85.2616 17.9759 85.2016 18.3879 85.0816 18.8039C84.9616 19.2199 84.7776 19.5959 84.5296 19.9319C84.2816 20.2599 83.9616 20.5039 83.5696 20.6639C84.0896 20.7919 84.5136 21.0239 84.8416 21.3599C85.1696 21.6959 85.4256 22.0919 85.6096 22.5479C85.7936 22.9959 85.9176 23.4559 85.9816 23.9279C86.0536 24.3919 86.0896 24.8239 86.0896 25.2239C86.0896 26.1119 85.8696 26.9039 85.4296 27.5999C84.9896 28.2959 84.3976 28.8479 83.6536 29.2559C82.9176 29.6639 82.1016 29.8679 81.2056 29.8679H74.4016ZM77.3296 27.3599H80.9056C81.3856 27.3599 81.8176 27.2439 82.2016 27.0119C82.5856 26.7799 82.8936 26.4599 83.1256 26.0519C83.3576 25.6439 83.4736 25.1799 83.4736 24.6599C83.4736 24.2119 83.3576 23.7879 83.1256 23.3879C82.8936 22.9879 82.5856 22.6639 82.2016 22.4159C81.8176 22.1679 81.3856 22.0439 80.9056 22.0439H77.3296V27.3599ZM77.3296 19.5719H80.1856C80.7776 19.5719 81.2816 19.3879 81.6976 19.0199C82.1216 18.6519 82.3336 18.1639 82.3336 17.5559C82.3336 16.9079 82.1216 16.4199 81.6976 16.0919C81.2816 15.7559 80.7776 15.5879 80.1856 15.5879H77.3296V19.5719Z" fill="white"/>
<path d="M87.5388 25.4279V17.8679H90.4668V24.6599C90.4668 25.1319 90.5828 25.5639 90.8148 25.9559C91.0468 26.3399 91.3548 26.6479 91.7388 26.8799C92.1308 27.1039 92.5588 27.2159 93.0228 27.2159C93.5028 27.2159 93.9348 27.1039 94.3188 26.8799C94.7028 26.6479 95.0108 26.3399 95.2428 25.9559C95.4748 25.5639 95.5908 25.1319 95.5908 24.6599V17.8679H98.5188L98.5308 29.8679H95.6028L95.5908 28.7759C95.1748 29.2079 94.6828 29.5519 94.1148 29.8079C93.5468 30.0559 92.9388 30.1799 92.2908 30.1799C91.4188 30.1799 90.6228 29.9679 89.9028 29.5439C89.1828 29.1119 88.6068 28.5399 88.1748 27.8279C87.7508 27.1079 87.5388 26.3079 87.5388 25.4279Z" fill="white"/>
<path d="M104.473 30.0839C103.849 30.0439 103.245 29.9199 102.661 29.7119C102.085 29.4959 101.573 29.2039 101.125 28.8359C100.677 28.4679 100.333 28.0279 100.093 27.5159L102.565 26.4599C102.661 26.6199 102.817 26.7919 103.033 26.9759C103.249 27.1519 103.505 27.2999 103.801 27.4199C104.105 27.5399 104.437 27.5999 104.797 27.5999C105.101 27.5999 105.389 27.5599 105.661 27.4799C105.941 27.3919 106.165 27.2599 106.333 27.0839C106.509 26.9079 106.597 26.6799 106.597 26.3999C106.597 26.1039 106.493 25.8759 106.285 25.7159C106.085 25.5479 105.829 25.4239 105.517 25.3439C105.213 25.2559 104.917 25.1759 104.629 25.1039C103.869 24.9519 103.161 24.7159 102.505 24.3959C101.857 24.0759 101.333 23.6639 100.933 23.1599C100.541 22.6479 100.345 22.0319 100.345 21.3119C100.345 20.5199 100.553 19.8359 100.969 19.2599C101.393 18.6839 101.941 18.2399 102.613 17.9279C103.293 17.6159 104.025 17.4599 104.809 17.4599C105.761 17.4599 106.633 17.6599 107.425 18.0599C108.225 18.4519 108.857 19.0079 109.321 19.7279L107.005 21.0959C106.893 20.9039 106.737 20.7279 106.537 20.5679C106.337 20.3999 106.109 20.2639 105.853 20.1599C105.597 20.0479 105.329 19.9839 105.049 19.9679C104.689 19.9519 104.361 19.9839 104.065 20.0639C103.769 20.1439 103.529 20.2799 103.345 20.4719C103.169 20.6639 103.081 20.9199 103.081 21.2399C103.081 21.5439 103.201 21.7719 103.441 21.9239C103.681 22.0679 103.969 22.1799 104.305 22.2599C104.649 22.3399 104.977 22.4279 105.289 22.5239C105.993 22.7559 106.653 23.0399 107.269 23.3759C107.893 23.7119 108.393 24.1239 108.769 24.6119C109.145 25.0999 109.325 25.6839 109.309 26.3639C109.309 27.1399 109.077 27.8199 108.613 28.4039C108.149 28.9799 107.549 29.4199 106.813 29.7239C106.085 30.0279 105.305 30.1479 104.473 30.0839Z" fill="white"/>
<path d="M111.081 17.8679H114.009V29.8679H111.081V17.8679ZM112.569 16.3199C112.137 16.3199 111.773 16.1799 111.477 15.8999C111.181 15.6119 111.033 15.2519 111.033 14.8199C111.033 14.3959 111.181 14.0399 111.477 13.7519C111.773 13.4639 112.133 13.3199 112.557 13.3199C112.981 13.3199 113.337 13.4639 113.625 13.7519C113.921 14.0399 114.069 14.3959 114.069 14.8199C114.069 15.2519 113.925 15.6119 113.637 15.8999C113.349 16.1799 112.993 16.3199 112.569 16.3199Z" fill="white"/>
<path d="M127.792 22.2839V29.8679H124.864V23.0519C124.864 22.5799 124.748 22.1519 124.516 21.7679C124.284 21.3759 123.972 21.0679 123.58 20.8439C123.196 20.6119 122.768 20.4959 122.296 20.4959C121.824 20.4959 121.392 20.6119 121 20.8439C120.616 21.0679 120.308 21.3759 120.076 21.7679C119.852 22.1519 119.74 22.5799 119.74 23.0519V29.8679H116.812L116.8 17.8679H119.728L119.74 18.9359C120.148 18.5039 120.636 18.1639 121.204 17.9159C121.772 17.6599 122.384 17.5319 123.04 17.5319C123.912 17.5319 124.708 17.7479 125.428 18.1799C126.148 18.6039 126.72 19.1759 127.144 19.8959C127.576 20.6079 127.792 21.4039 127.792 22.2839Z" fill="white"/>
<path d="M135.228 30.1799C134.124 30.1799 133.116 29.8959 132.204 29.3279C131.3 28.7599 130.576 27.9959 130.032 27.0359C129.496 26.0759 129.228 25.0159 129.228 23.8559C129.228 22.9839 129.384 22.1679 129.696 21.4079C130.008 20.6399 130.436 19.9679 130.98 19.3919C131.532 18.8079 132.172 18.3519 132.9 18.0239C133.628 17.6959 134.404 17.5319 135.228 17.5319C136.164 17.5319 137.02 17.7319 137.796 18.1319C138.58 18.5239 139.244 19.0639 139.788 19.7519C140.332 20.4399 140.728 21.2239 140.976 22.1039C141.224 22.9839 141.28 23.9039 141.144 24.8639H132.372C132.484 25.3119 132.668 25.7159 132.924 26.0759C133.18 26.4279 133.504 26.7119 133.896 26.9279C134.288 27.1359 134.732 27.2439 135.228 27.2519C135.74 27.2599 136.204 27.1399 136.62 26.8919C137.044 26.6359 137.396 26.2919 137.676 25.8599L140.664 26.5559C140.176 27.6199 139.448 28.4919 138.48 29.1719C137.512 29.8439 136.428 30.1799 135.228 30.1799ZM132.276 22.6679H138.18C138.092 22.1879 137.904 21.7559 137.616 21.3719C137.336 20.9799 136.988 20.6679 136.572 20.4359C136.156 20.2039 135.708 20.0879 135.228 20.0879C134.748 20.0879 134.304 20.2039 133.896 20.4359C133.488 20.6599 133.14 20.9679 132.852 21.3599C132.572 21.7439 132.38 22.1799 132.276 22.6679Z" fill="white"/>
<path d="M146.731 30.0839C146.107 30.0439 145.503 29.9199 144.919 29.7119C144.343 29.4959 143.831 29.2039 143.383 28.8359C142.935 28.4679 142.591 28.0279 142.351 27.5159L144.823 26.4599C144.919 26.6199 145.075 26.7919 145.291 26.9759C145.507 27.1519 145.763 27.2999 146.059 27.4199C146.363 27.5399 146.695 27.5999 147.055 27.5999C147.359 27.5999 147.647 27.5599 147.919 27.4799C148.199 27.3919 148.423 27.2599 148.591 27.0839C148.767 26.9079 148.855 26.6799 148.855 26.3999C148.855 26.1039 148.751 25.8759 148.543 25.7159C148.343 25.5479 148.087 25.4239 147.775 25.3439C147.471 25.2559 147.175 25.1759 146.887 25.1039C146.127 24.9519 145.419 24.7159 144.763 24.3959C144.115 24.0759 143.591 23.6639 143.191 23.1599C142.799 22.6479 142.603 22.0319 142.603 21.3119C142.603 20.5199 142.811 19.8359 143.227 19.2599C143.651 18.6839 144.199 18.2399 144.871 17.9279C145.551 17.6159 146.283 17.4599 147.067 17.4599C148.019 17.4599 148.891 17.6599 149.683 18.0599C150.483 18.4519 151.115 19.0079 151.579 19.7279L149.263 21.0959C149.151 20.9039 148.995 20.7279 148.795 20.5679C148.595 20.3999 148.367 20.2639 148.111 20.1599C147.855 20.0479 147.587 19.9839 147.307 19.9679C146.947 19.9519 146.619 19.9839 146.323 20.0639C146.027 20.1439 145.787 20.2799 145.603 20.4719C145.427 20.6639 145.339 20.9199 145.339 21.2399C145.339 21.5439 145.459 21.7719 145.699 21.9239C145.939 22.0679 146.227 22.1799 146.563 22.2599C146.907 22.3399 147.235 22.4279 147.547 22.5239C148.251 22.7559 148.911 23.0399 149.527 23.3759C150.151 23.7119 150.651 24.1239 151.027 24.6119C151.403 25.0999 151.583 25.6839 151.567 26.3639C151.567 27.1399 151.335 27.8199 150.871 28.4039C150.407 28.9799 149.807 29.4199 149.071 29.7239C148.343 30.0279 147.563 30.1479 146.731 30.0839Z" fill="white"/>
<path d="M157.16 30.0839C156.536 30.0439 155.932 29.9199 155.348 29.7119C154.772 29.4959 154.26 29.2039 153.812 28.8359C153.364 28.4679 153.02 28.0279 152.78 27.5159L155.252 26.4599C155.348 26.6199 155.504 26.7919 155.72 26.9759C155.936 27.1519 156.192 27.2999 156.488 27.4199C156.792 27.5399 157.124 27.5999 157.484 27.5999C157.788 27.5999 158.076 27.5599 158.348 27.4799C158.628 27.3919 158.852 27.2599 159.02 27.0839C159.196 26.9079 159.284 26.6799 159.284 26.3999C159.284 26.1039 159.18 25.8759 158.972 25.7159C158.772 25.5479 158.516 25.4239 158.204 25.3439C157.9 25.2559 157.604 25.1759 157.316 25.1039C156.556 24.9519 155.848 24.7159 155.192 24.3959C154.544 24.0759 154.02 23.6639 153.62 23.1599C153.228 22.6479 153.032 22.0319 153.032 21.3119C153.032 20.5199 153.24 19.8359 153.656 19.2599C154.08 18.6839 154.628 18.2399 155.3 17.9279C155.98 17.6159 156.712 17.4599 157.496 17.4599C158.448 17.4599 159.32 17.6599 160.112 18.0599C160.912 18.4519 161.544 19.0079 162.008 19.7279L159.692 21.0959C159.58 20.9039 159.424 20.7279 159.224 20.5679C159.024 20.3999 158.796 20.2639 158.54 20.1599C158.284 20.0479 158.016 19.9839 157.736 19.9679C157.376 19.9519 157.048 19.9839 156.752 20.0639C156.456 20.1439 156.216 20.2799 156.032 20.4719C155.856 20.6639 155.768 20.9199 155.768 21.2399C155.768 21.5439 155.888 21.7719 156.128 21.9239C156.368 22.0679 156.656 22.1799 156.992 22.2599C157.336 22.3399 157.664 22.4279 157.976 22.5239C158.68 22.7559 159.34 23.0399 159.956 23.3759C160.58 23.7119 161.08 24.1239 161.456 24.6119C161.832 25.0999 162.012 25.6839 161.996 26.3639C161.996 27.1399 161.764 27.8199 161.3 28.4039C160.836 28.9799 160.236 29.4199 159.5 29.7239C158.772 30.0279 157.992 30.1479 157.16 30.0839Z" fill="white"/>
<path d="M168.402 29.8679L171.666 13.0679H174.09L178.182 23.8319L182.274 13.0679H184.698L187.962 29.8679H184.974L182.958 19.4759L179.178 29.4839H177.174L173.394 19.4759L171.39 29.8679H168.402Z" fill="white"/>
<path d="M194.846 30.1799C193.742 30.1799 192.734 29.8959 191.822 29.3279C190.918 28.7599 190.194 27.9959 189.65 27.0359C189.114 26.0759 188.846 25.0159 188.846 23.8559C188.846 22.9839 189.002 22.1679 189.314 21.4079C189.626 20.6399 190.054 19.9679 190.598 19.3919C191.15 18.8079 191.79 18.3519 192.518 18.0239C193.246 17.6959 194.022 17.5319 194.846 17.5319C195.782 17.5319 196.638 17.7319 197.414 18.1319C198.198 18.5239 198.862 19.0639 199.406 19.7519C199.95 20.4399 200.346 21.2239 200.594 22.1039C200.842 22.9839 200.898 23.9039 200.762 24.8639H191.99C192.102 25.3119 192.286 25.7159 192.542 26.0759C192.798 26.4279 193.122 26.7119 193.514 26.9279C193.906 27.1359 194.35 27.2439 194.846 27.2519C195.358 27.2599 195.822 27.1399 196.238 26.8919C196.662 26.6359 197.014 26.2919 197.294 25.8599L200.282 26.5559C199.794 27.6199 199.066 28.4919 198.098 29.1719C197.13 29.8439 196.046 30.1799 194.846 30.1799ZM191.894 22.6679H197.798C197.71 22.1879 197.522 21.7559 197.234 21.3719C196.954 20.9799 196.606 20.6679 196.19 20.4359C195.774 20.2039 195.326 20.0879 194.846 20.0879C194.366 20.0879 193.922 20.2039 193.514 20.4359C193.106 20.6599 192.758 20.9679 192.47 21.3599C192.19 21.7439 191.998 22.1799 191.894 22.6679Z" fill="white"/>
<path d="M213.706 22.2839V29.8679H210.778V23.0519C210.778 22.5799 210.662 22.1519 210.43 21.7679C210.198 21.3759 209.886 21.0679 209.494 20.8439C209.11 20.6119 208.682 20.4959 208.21 20.4959C207.738 20.4959 207.306 20.6119 206.914 20.8439C206.53 21.0679 206.222 21.3759 205.99 21.7679C205.766 22.1519 205.654 22.5799 205.654 23.0519V29.8679H202.726L202.714 17.8679H205.642L205.654 18.9359C206.062 18.5039 206.55 18.1639 207.118 17.9159C207.686 17.6599 208.298 17.5319 208.954 17.5319C209.826 17.5319 210.622 17.7479 211.342 18.1799C212.062 18.6039 212.634 19.1759 213.058 19.8959C213.49 20.6079 213.706 21.4039 213.706 22.2839Z" fill="white"/>
<path d="M222.529 20.7959H220.201V29.8679H217.273V20.7959H215.497V17.8679H217.273V14.0999H220.201V17.8679H222.529V20.7959Z" fill="white"/>
<path d="M229.697 30.1799C228.593 30.1799 227.585 29.8959 226.673 29.3279C225.769 28.7599 225.045 27.9999 224.501 27.0479C223.965 26.0879 223.697 25.0279 223.697 23.8679C223.697 22.9879 223.853 22.1679 224.165 21.4079C224.477 20.6399 224.905 19.9679 225.449 19.3919C226.001 18.8079 226.641 18.3519 227.369 18.0239C228.097 17.6959 228.873 17.5319 229.697 17.5319C230.801 17.5319 231.805 17.8159 232.709 18.3839C233.621 18.9519 234.345 19.7159 234.881 20.6759C235.425 21.6359 235.697 22.6999 235.697 23.8679C235.697 24.7399 235.541 25.5559 235.229 26.3159C234.917 27.0759 234.485 27.7479 233.933 28.3319C233.389 28.9079 232.753 29.3599 232.025 29.6879C231.305 30.0159 230.529 30.1799 229.697 30.1799ZM229.697 27.2519C230.281 27.2519 230.805 27.0959 231.269 26.7839C231.733 26.4719 232.097 26.0599 232.361 25.5479C232.633 25.0359 232.769 24.4759 232.769 23.8679C232.769 23.2439 232.629 22.6759 232.349 22.1639C232.077 21.6439 231.705 21.2319 231.233 20.9279C230.769 20.6159 230.257 20.4599 229.697 20.4599C229.121 20.4599 228.601 20.6159 228.137 20.9279C227.673 21.2399 227.305 21.6559 227.033 22.1759C226.761 22.6959 226.625 23.2599 226.625 23.8679C226.625 24.4999 226.765 25.0719 227.045 25.5839C227.325 26.0959 227.697 26.5039 228.161 26.8079C228.633 27.1039 229.145 27.2519 229.697 27.2519Z" fill="white"/>
<path d="M237.578 29.8679L237.566 17.8679H240.494L240.506 18.9359C240.914 18.5039 241.402 18.1639 241.97 17.9159C242.538 17.6599 243.15 17.5319 243.806 17.5319C244.246 17.5319 244.686 17.5959 245.126 17.7239L243.974 20.6759C243.67 20.5559 243.366 20.4959 243.062 20.4959C242.59 20.4959 242.158 20.6119 241.766 20.8439C241.382 21.0679 241.074 21.3759 240.842 21.7679C240.618 22.1519 240.506 22.5799 240.506 23.0519V29.8679H237.578Z" fill="white"/>
</g>
</svg>
